<svg width="173" height="100" viewBox="0 0 173 100" fill="none" xmlns="http://www.w3.org/2000/svg">
<path d="M163.232 60.2265C157.142 75.9953 145.692 89.8103 129.788 95.8817C127.72 96.6701 125.607 97.339 123.462 97.885C112.115 100.778 99.7018 99.7717 89.242 94.5002C84.8027 92.2612 80.7547 89.3025 76.2993 87.0956C71.8439 84.8886 66.756 83.4442 61.9067 84.5336C57.7313 85.4715 54.2085 88.1595 50.6616 90.554C42.3002 96.1993 32.2465 100.667 22.3454 98.7278C17.7895 97.8368 13.3033 95.3685 11.1875 91.2428C6.51102 82.1216 15.3307 71.2772 13.5445 61.19C12.4015 54.734 7.181 49.8994 3.9356 44.2018C-1.61857 34.4562 -0.961989 21.5108 5.55026 12.3789C12.0625 3.24704 24.0847 -1.59695 35.1073 0.474644C48.5485 3.00183 58.7108 14.3768 71.7809 18.4021C79.9547 20.9172 88.8293 20.1668 96.636 16.8544C109.249 11.5012 126.578 3.29126 140.772 4.62855C148.32 5.34007 155.723 8.68999 160.705 14.4103C167.003 21.6314 168.891 31.8835 167.841 41.4053C167.119 47.851 165.571 54.1768 163.232 60.2265V60.2265Z" fill="url(#paint0_linear_204_8043)"/>
<path d="M167.284 72.699C167.004 72.6986 166.725 72.6648 166.453 72.5985C165.594 72.387 164.847 71.8554 164.365 71.112C163.884 70.3686 163.705 69.4695 163.864 68.5983C164.023 67.7272 164.509 66.9496 165.222 66.4244C165.935 65.8992 166.822 65.666 167.701 65.7724C168.58 65.8787 169.385 66.3166 169.953 66.9967C170.52 67.6768 170.806 68.5477 170.753 69.4317C170.7 70.3157 170.311 71.146 169.667 71.7532C169.022 72.3604 168.17 72.6987 167.284 72.699ZM167.284 67.315C166.824 67.3167 166.379 67.4869 166.035 67.7933C165.692 68.0998 165.472 68.5214 165.417 68.9788C165.362 69.4363 165.477 69.8979 165.739 70.2768C166.001 70.6557 166.392 70.9257 166.839 71.0361C167.098 71.0983 167.368 71.105 167.629 71.0558C167.891 71.0065 168.139 70.9024 168.358 70.7503C168.577 70.5981 168.761 70.4014 168.898 70.1731C169.035 69.9448 169.122 69.6901 169.154 69.4256C169.185 69.1611 169.161 68.893 169.081 68.6388C169.002 68.3846 168.869 68.1501 168.693 67.9507C168.516 67.7513 168.299 67.5916 168.057 67.482C167.814 67.3725 167.551 67.3155 167.284 67.315V67.315Z" fill="#E7F6FF"/>
<path d="M164.112 76.3853C164.309 75.5704 163.809 74.7497 162.994 74.5521C162.179 74.3545 161.359 74.8549 161.161 75.6697C160.963 76.4846 161.464 77.3053 162.279 77.5029C163.094 77.7005 163.914 77.2001 164.112 76.3853Z" fill="#E7F6FF"/>
<path d="M7.39519 72.368C6.47483 72.3479 5.59955 71.9656 4.95936 71.304C4.31917 70.6425 3.96574 69.7552 3.97579 68.8346C3.98585 67.9141 4.35858 67.0347 5.01307 66.3873C5.66757 65.74 6.55099 65.3769 7.47156 65.3769C8.39214 65.3769 9.27556 65.74 9.93005 66.3873C10.5845 67.0347 10.9573 67.9141 10.9673 68.8346C10.9774 69.7552 10.624 70.6425 9.98377 71.304C9.34358 71.9656 8.4683 72.3479 7.54794 72.368H7.39519ZM7.39519 66.9853H7.31613C6.81905 66.9961 6.34628 67.2025 6.00047 67.5597C5.65465 67.917 5.46371 68.3962 5.46909 68.8933C5.47447 69.3905 5.67575 69.8655 6.02921 70.2151C6.38268 70.5648 6.8598 70.7609 7.357 70.7609C7.85419 70.7609 8.33131 70.5648 8.68478 70.2151C9.03825 69.8655 9.23952 69.3905 9.2449 68.8933C9.25028 68.3962 9.05934 67.917 8.71352 67.5597C8.36771 67.2025 7.89494 66.9961 7.39787 66.9853H7.39519Z" fill="#E7F6FF"/>
<path d="M4.90276 78.2347C5.74045 78.1986 6.39024 77.4902 6.3541 76.6525C6.31797 75.8148 5.60959 75.165 4.7719 75.2012C3.93421 75.2373 3.28442 75.9457 3.32055 76.7834C3.35669 77.6211 4.06507 78.2709 4.90276 78.2347Z" fill="#E7F6FF"/>
<path d="M95.0144 15.8468C94.1801 15.8475 93.3732 15.5496 92.7396 15.0069C92.106 14.4642 91.6877 13.7126 91.5603 12.8882C91.4328 12.0637 91.6048 11.2209 92.045 10.5123C92.4852 9.80362 93.1645 9.27598 93.96 9.02484C94.7556 8.7737 95.6147 8.81567 96.382 9.14314C97.1493 9.47061 97.7739 10.0619 98.143 10.8101C98.512 11.5583 98.601 12.4138 98.3938 13.2219C98.1867 14.03 97.6971 14.7373 97.0136 15.2156C96.4275 15.6257 95.7297 15.846 95.0144 15.8468V15.8468ZM95.0037 10.4655C94.5155 10.465 94.0461 10.6528 93.6931 10.99C93.3401 11.3271 93.1308 11.7874 93.1089 12.2751C93.087 12.7627 93.2541 13.24 93.5754 13.6074C93.8967 13.9748 94.3474 14.2041 94.8336 14.2474C95.3198 14.2907 95.8039 14.1447 96.1851 13.8398C96.5663 13.535 96.8151 13.0947 96.8797 12.6109C96.9443 12.1271 96.8197 11.637 96.5319 11.2428C96.244 10.8486 95.8151 10.5807 95.3346 10.4949C95.2254 10.4755 95.1146 10.4656 95.0037 10.4655V10.4655Z" fill="#E7F6FF"/>
<path d="M87.8865 15.6557C88.573 15.1743 88.7392 14.2275 88.2578 13.541C87.7764 12.8545 86.8297 12.6883 86.1432 13.1697C85.4567 13.6511 85.2904 14.5978 85.7718 15.2843C86.2532 15.9708 87.2 16.1371 87.8865 15.6557Z" fill="#E7F6FF"/>
<path d="M172.32 33.8559C172.32 32.3825 171.735 30.9695 170.693 29.9276C169.651 28.8857 168.238 28.3004 166.765 28.3004C166.641 28.3004 166.519 28.3004 166.399 28.3125C166.407 28.1919 166.411 28.0699 166.411 27.9467C166.411 27.1571 166.242 26.3766 165.917 25.6572C165.591 24.9379 165.116 24.2962 164.523 23.7749C163.93 23.2536 163.232 22.8648 162.477 22.6343C161.722 22.4038 160.926 22.3369 160.143 22.4381C159.36 22.5393 158.608 22.8062 157.936 23.2211C157.264 23.6361 156.689 24.1894 156.247 24.8443C155.806 25.4993 155.51 26.2407 155.378 27.0191C155.246 27.7976 155.281 28.5953 155.482 29.359C154.811 28.8721 154.039 28.5417 153.223 28.392C152.407 28.2424 151.568 28.2773 150.768 28.4942C149.967 28.7111 149.225 29.1045 148.597 29.6456C147.968 30.1866 147.468 30.8616 147.135 31.6209C146.801 32.3802 146.641 33.2046 146.668 34.0335C146.694 34.8625 146.906 35.6751 147.288 36.4116C147.669 37.148 148.211 37.7898 148.872 38.2896C149.534 38.7895 150.3 39.1348 151.112 39.3002C151.444 40.1803 151.994 40.9617 152.71 41.5712C153.427 42.1807 154.286 42.5984 155.208 42.7851C156.13 42.9718 157.084 42.9213 157.981 42.6385C158.878 42.3557 159.689 41.8498 160.337 41.1681C161 41.6687 161.767 42.0141 162.581 42.179C163.396 42.3439 164.236 42.324 165.042 42.1209C165.848 41.9178 166.597 41.5365 167.236 41.0052C167.875 40.4739 168.387 39.8061 168.733 39.051C169.787 38.6513 170.695 37.9403 171.336 37.0123C171.977 36.0844 172.32 34.9836 172.32 33.8559V33.8559Z" fill="white"/>
<path d="M25.6537 20.5018C25.6544 19.7719 25.5113 19.049 25.2325 18.3745C24.9537 17.6999 24.5447 17.0869 24.0289 16.5705C23.5131 16.0541 22.9006 15.6443 22.2264 15.3647C21.5522 15.0851 20.8295 14.9411 20.0996 14.941C19.9763 14.941 19.8543 14.941 19.7338 14.953C19.7418 14.8324 19.7458 14.7105 19.7458 14.5872C19.7457 13.7976 19.5772 13.0171 19.2516 12.2978C18.9261 11.5784 18.4509 10.9367 17.8579 10.4154C17.2648 9.89418 16.5674 9.50533 15.8122 9.27481C15.057 9.04429 14.2614 8.9774 13.4783 9.07859C12.6952 9.17979 11.9427 9.44675 11.2709 9.86168C10.5991 10.2766 10.0235 10.83 9.58242 11.4849C9.14134 12.1398 8.84493 12.8812 8.71295 13.6597C8.58097 14.4382 8.61645 15.2358 8.81703 15.9995C8.14559 15.5126 7.37365 15.1822 6.55785 15.0325C5.74205 14.8829 4.90309 14.9178 4.10255 15.1347C3.30201 15.3517 2.56019 15.7451 1.93154 16.2861C1.3029 16.8272 0.803368 17.5021 0.46962 18.2614C0.135871 19.0207 -0.0236277 19.8451 0.00282689 20.6741C0.0292815 21.5031 0.241019 22.3156 0.6225 23.0521C1.00398 23.7886 1.54553 24.4303 2.20739 24.9301C2.86926 25.43 3.63465 25.7753 4.44739 25.9408C4.77954 26.82 5.32935 27.6007 6.04537 28.2096C6.76138 28.8186 7.62019 29.2359 8.54141 29.4225C9.46263 29.6091 10.4161 29.559 11.3127 29.2767C12.2092 28.9945 13.0195 28.4894 13.6677 27.8087C14.3309 28.3092 15.0978 28.6547 15.9121 28.8195C16.7264 28.9844 17.5674 28.9646 18.373 28.7614C19.1786 28.5583 19.9284 28.177 20.5672 27.6457C21.206 27.1145 21.7174 26.4467 22.064 25.6915C23.118 25.2926 24.0258 24.5825 24.667 23.6557C25.3081 22.7288 25.6522 21.6288 25.6537 20.5018V20.5018Z" fill="white"/>
<path d="M127.857 99.5506H47.928V97.8086H127.857C128.088 97.8086 128.31 97.9004 128.473 98.0637C128.636 98.2271 128.728 98.4486 128.728 98.6796C128.728 98.9106 128.636 99.1321 128.473 99.2955C128.31 99.4588 128.088 99.5506 127.857 99.5506V99.5506Z" fill="#426572"/>
<path d="M44.3531 99.5506H39.4662C39.2352 99.5506 39.0137 99.4588 38.8503 99.2955C38.687 99.1321 38.5952 98.9106 38.5952 98.6796C38.5952 98.4486 38.687 98.2271 38.8503 98.0637C39.0137 97.9004 39.2352 97.8086 39.4662 97.8086H44.3531C44.5841 97.8086 44.8056 97.9004 44.9689 98.0637C45.1323 98.2271 45.224 98.4486 45.224 98.6796C45.224 98.9106 45.1323 99.1321 44.9689 99.2955C44.8056 99.4588 44.5841 99.5506 44.3531 99.5506Z" fill="#426572"/>
<path d="M36.2945 99.5506H34.7374C34.5064 99.5506 34.2849 99.4588 34.1216 99.2955C33.9582 99.1321 33.8665 98.9106 33.8665 98.6796C33.8665 98.4486 33.9582 98.2271 34.1216 98.0637C34.2849 97.9004 34.5064 97.8086 34.7374 97.8086H36.2945C36.5255 97.8086 36.747 97.9004 36.9104 98.0637C37.0737 98.2271 37.1655 98.4486 37.1655 98.6796C37.1655 98.9106 37.0737 99.1321 36.9104 99.2955C36.747 99.4588 36.5255 99.5506 36.2945 99.5506Z" fill="#426572"/>
<path d="M155.884 99.5506H131.317V97.8086H155.884C156.115 97.8086 156.336 97.9004 156.5 98.0637C156.663 98.2271 156.755 98.4486 156.755 98.6796C156.755 98.9106 156.663 99.1321 156.5 99.2955C156.336 99.4588 156.115 99.5506 155.884 99.5506Z" fill="#426572"/>
<path d="M30.2834 99.5506H5.71509V97.8086H30.2834C30.5144 97.8086 30.736 97.9004 30.8993 98.0637C31.0626 98.2271 31.1544 98.4486 31.1544 98.6796C31.1544 98.9106 31.0626 99.1321 30.8993 99.2955C30.736 99.4588 30.5144 99.5506 30.2834 99.5506Z" fill="#426572"/>
<path d="M38.0685 31.5646H127.554C129.169 31.5646 130.718 32.206 131.861 33.3478C133.003 34.4896 133.645 36.0383 133.646 37.6534V95.5749H31.9771V37.6534C31.9778 36.0383 32.6199 34.4896 33.7622 33.3478C34.9045 32.206 36.4534 31.5646 38.0685 31.5646Z" fill="#EBF0F9"/>
<path d="M35.9138 36.0066H130.112V89.8197H35.9138V36.0066Z" fill="#637F91"/>
<g opacity="0.5">
<path d="M64.0626 35.8056L49.9782 90.1226H42.8857L56.9702 35.8056H64.0626Z" fill="#A7BCD5"/>
<path d="M82.1401 35.8056L68.057 90.1226H53.1833L67.2678 35.8056H82.1401Z" fill="#A7BCD5"/>
</g>
<path d="M134.45 96.3789H31.1731V35.0566C31.1745 33.9176 31.6276 32.8258 32.4329 32.0204C33.2383 31.2151 34.3301 30.762 35.469 30.7606H130.154C131.293 30.762 132.385 31.2151 133.19 32.0204C133.995 32.8258 134.448 33.9176 134.45 35.0566V96.3789ZM32.7811 94.7709H132.842V35.0566C132.841 34.3439 132.558 33.6606 132.054 33.1567C131.55 32.6527 130.867 32.3693 130.154 32.3686H35.469C34.7564 32.3693 34.0731 32.6527 33.5691 33.1567C33.0652 33.6606 32.7818 34.3439 32.7811 35.0566V94.7709Z" fill="#426572"/>
<path d="M19.1548 93.6574H149.195V94.0849C149.195 95.4708 148.644 96.8001 147.664 97.7801C146.684 98.7602 145.355 99.3107 143.969 99.3107H24.3807C22.9947 99.3107 21.6655 98.7602 20.6854 97.7801C19.7054 96.8001 19.1548 95.4708 19.1548 94.0849V93.6574V93.6574Z" fill="#EBF0F9"/>
<path opacity="0.5" d="M148.529 96.3829C148.243 97.1263 147.738 97.7655 147.082 98.2162C146.425 98.6669 145.647 98.9079 144.851 98.9074H22.6885C21.8925 98.9074 21.1151 98.6661 20.459 98.2155C19.8029 97.7648 19.2987 97.1259 19.0129 96.3829H148.529Z" fill="#A7BCD5"/>
<path d="M143.362 99.9124H23.7752C22.1765 99.9106 20.6439 99.2748 19.5134 98.1443C18.383 97.0139 17.7471 95.4812 17.7454 93.8825V92.6511H149.393V93.8825C149.391 95.4814 148.755 97.0143 147.625 98.1448C146.494 99.2753 144.961 99.911 143.362 99.9124V99.9124ZM19.3681 94.2591C19.4624 95.3626 19.9674 96.3906 20.7832 97.1397C21.5991 97.8888 22.6663 98.3044 23.7739 98.3044H143.362C144.47 98.3044 145.537 97.8888 146.353 97.1397C147.169 96.3906 147.674 95.3626 147.768 94.2591H19.3681Z" fill="#426572"/>
<path d="M130.714 90.3209H34.9062V35.2026H130.714V90.3209ZM36.5142 88.7129H129.106V36.8106H36.5142V88.7129Z" fill="#426572"/>
<path d="M115.713 18.7317V89.5169H51.5005V18.7317C51.5029 18.4126 51.6308 18.1073 51.8564 17.8817C52.0821 17.6561 52.3874 17.5282 52.7065 17.5258H114.502C114.575 17.5258 114.647 17.5325 114.719 17.5459C114.997 17.5972 115.248 17.7437 115.429 17.9601C115.611 18.1765 115.711 18.4493 115.713 18.7317V18.7317Z" fill="white"/>
<path d="M52.5106 23.376H115.915V19.1176L114.703 17.5204H59.1743H53.722L51.7026 19.1176V23.376H52.5106Z" fill="#E2F2FF"/>
<path d="M116.719 90.3209H50.8987V18.7317C50.9008 18.1993 51.1132 17.6893 51.4897 17.3128C51.8662 16.9363 52.3762 16.7239 52.9086 16.7218H114.701C115.234 16.7239 115.744 16.9363 116.12 17.3128C116.497 17.6893 116.709 18.1993 116.711 18.7317L116.719 90.3209ZM52.5066 88.7129H115.111V18.7317C115.109 18.626 115.065 18.5253 114.991 18.4505C114.916 18.3757 114.815 18.3324 114.709 18.3297H52.914C52.8082 18.3324 52.7076 18.3757 52.6327 18.4505C52.5579 18.5253 52.5147 18.626 52.512 18.7317L52.5066 88.7129Z" fill="#426572"/>
<path d="M111.965 20.002H55.4801C55.0339 20.002 54.6721 20.3638 54.6721 20.81C54.6721 21.2563 55.0339 21.618 55.4801 21.618H111.965C112.411 21.618 112.773 21.2563 112.773 20.81C112.773 20.3638 112.411 20.002 111.965 20.002Z" fill="#CADCE8"/>
<path d="M59.4385 30.9589H72.6412V46.0028H59.4385V30.9589Z" fill="#E8837E"/>
<path d="M73.8872 30.9589H105.193V46.0028H73.8872V30.9589Z" fill="#E8837E"/>
<path d="M90.4116 47.6683H105.193V62.7122H90.4116V47.6683Z" fill="#DDE4ED"/>
<path d="M59.6045 47.6683H89.1655V62.7122H59.6045V47.6683Z" fill="#DDE4ED"/>
<path d="M59.6045 64.3777H105.276V79.4216H59.6045V64.3777Z" fill="#DDE4ED"/>
<path d="M93.968 81.4436H105.679V83.0516H93.968V81.4436Z" fill="#DDE4ED"/>
<path d="M41.7026 85.6832H22.533C22.2174 85.6855 21.9063 85.6081 21.6285 85.4581C21.2265 85.2384 20.9692 84.8779 20.9692 84.4719L20.98 58.1201C20.9802 57.9476 21.0265 57.7783 21.114 57.6297C21.3578 57.2062 21.9086 56.9088 22.5437 56.9088H41.7133C42.3833 56.9088 42.9474 57.233 43.1725 57.6859C43.2407 57.82 43.2765 57.9683 43.277 58.1187L43.2677 84.4719C43.2677 85.0803 42.6794 85.5881 41.9196 85.6712C41.8476 85.6793 41.7751 85.6833 41.7026 85.6832V85.6832Z" fill="white"/>
<path d="M42.2237 85.4809L23.0474 85.4769C22.7318 85.4792 22.4207 85.4017 22.1429 85.2518C21.7409 85.032 21.4836 84.6716 21.4836 84.2656L21.4944 57.9138C21.4946 57.7413 21.5409 57.572 21.6284 57.4233C21.8722 56.9999 22.423 56.7024 23.0581 56.7024H23.3194L23.3154 82.6496C23.3154 83.0516 23.5753 83.416 23.9746 83.6358C24.2524 83.7857 24.5635 83.8632 24.8791 83.8609H43.7888V84.2629C43.7888 84.8712 43.2005 85.3791 42.4408 85.4622C42.3688 85.4725 42.2963 85.4788 42.2237 85.4809V85.4809Z" fill="#D6DEE9"/>
<path d="M41.9626 86.2849H22.7917C22.3397 86.2872 21.8944 86.1752 21.4973 85.9593C20.8273 85.5881 20.4253 84.9556 20.4253 84.2696L20.436 57.9178C20.4376 57.6034 20.5222 57.2951 20.6812 57.024C21.0832 56.3339 21.8872 55.9038 22.8051 55.9038H41.9747C42.9126 55.9038 43.7501 56.3661 44.1307 57.0843L44.2379 57.2491V57.3241C44.3073 57.5153 44.3426 57.7171 44.3424 57.9204L44.3317 84.2722C44.3317 85.2826 43.4433 86.1482 42.2668 86.2701C42.1657 86.2808 42.0642 86.2857 41.9626 86.2849V86.2849ZM22.8011 57.505C22.4406 57.505 22.1592 57.6645 22.0694 57.8226C22.0519 57.8493 22.0421 57.8804 22.0413 57.9124L22.0306 84.2642C22.0306 84.3526 22.1284 84.4652 22.2745 84.5469C22.4337 84.6312 22.6115 84.6745 22.7917 84.6729H41.9613C42.0033 84.6731 42.0454 84.6709 42.0872 84.6662C42.4892 84.6233 42.7224 84.3982 42.7224 84.2642L42.7331 57.9124C42.7331 57.8964 42.7304 57.8806 42.7251 57.8655L42.65 57.7503C42.4647 57.5831 42.2214 57.4951 41.972 57.505H22.8024H22.8011Z" fill="#426572"/>
<path d="M26.7512 68.3119H39.7516V69.9199H26.7512V68.3119Z" fill="#426572"/>
<path d="M26.7512 64.9566H39.7516V66.5646H26.7512V64.9566Z" fill="#426572"/>
<path d="M26.7512 72.1134H39.7516V73.7214H26.7512V72.1134Z" fill="#426572"/>
<path opacity="0.2" d="M143.645 38.0554C144.581 36.2975 145.156 34.3698 145.336 32.3861C145.515 30.4024 145.296 28.4028 144.69 26.5054C144.084 24.6079 143.104 22.8511 141.808 21.3385C140.512 19.8258 138.927 18.5881 137.145 17.6982C135.363 16.8084 133.42 16.2845 131.433 16.1574C129.445 16.0304 127.452 16.3028 125.571 16.9585C123.69 17.6142 121.96 18.6401 120.482 19.9754C119.004 21.3107 117.808 22.9286 116.966 24.7334C115.802 26.9183 115.201 29.3582 115.216 31.8335C115.23 34.3087 115.861 36.7414 117.05 38.9124C118.239 41.0833 119.95 42.9241 122.028 44.2691C124.106 45.614 126.486 46.4207 128.953 46.6165C128.523 46.7183 128.085 46.8009 127.641 46.8644C129.977 47.2012 132.36 46.9789 134.593 46.2158C136.826 45.4526 138.846 44.1705 140.488 42.4746C141.801 41.2067 142.871 39.7089 143.645 38.0554Z" fill="#606060"/>
<path d="M128.471 43.1339C136.708 43.1339 143.385 36.4567 143.385 28.22C143.385 19.9833 136.708 13.3062 128.471 13.3062C120.234 13.3062 113.557 19.9833 113.557 28.22C113.557 36.4567 120.234 43.1339 128.471 43.1339Z" fill="#A8EF9E"/>
<path d="M142.673 29.2853C142.673 31.4236 142.213 33.5368 141.324 35.4816C140.435 37.4264 139.139 39.1574 137.522 40.5573C135.906 41.9571 134.007 42.993 131.956 43.5948C129.904 44.1966 127.747 44.3501 125.63 44.0451C129.179 43.5321 132.424 41.7576 134.771 39.0468C137.118 36.336 138.41 32.8704 138.41 29.2846C138.41 25.6989 137.118 22.2333 134.771 19.5225C132.424 16.8117 129.179 15.0372 125.63 14.5242C127.747 14.2189 129.904 14.3724 131.956 14.9741C134.008 15.5759 135.907 16.6119 137.524 18.0119C139.14 19.4119 140.437 21.1431 141.326 23.0882C142.214 25.0333 142.674 27.1468 142.675 29.2853H142.673Z" fill="#A7E59C"/>
<path d="M128.116 44.6467C125.007 44.6467 121.968 43.7249 119.383 41.9978C116.799 40.2707 114.784 37.8159 113.594 34.9438C112.405 32.0718 112.093 28.9114 112.7 25.8625C113.306 22.8135 114.803 20.0129 117.002 17.8147C119.2 15.6165 122 14.1195 125.049 13.513C128.098 12.9066 131.259 13.2178 134.131 14.4075C137.003 15.5971 139.458 17.6117 141.185 20.1965C142.912 22.7813 143.834 25.8202 143.834 28.9289C143.829 33.0961 142.172 37.0913 139.225 40.038C136.278 42.9846 132.283 44.6421 128.116 44.6467V44.6467ZM128.116 14.8203C125.325 14.8203 122.597 15.6479 120.277 17.1983C117.956 18.7487 116.148 20.9524 115.08 23.5306C114.012 26.1088 113.733 28.9459 114.277 31.6829C114.821 34.42 116.165 36.9341 118.139 38.9074C120.112 40.8807 122.626 42.2245 125.363 42.769C128.1 43.3134 130.937 43.034 133.515 41.966C136.094 40.8981 138.297 39.0896 139.848 36.7692C141.398 34.4489 142.226 31.7209 142.226 28.9302C142.222 25.1892 140.734 21.6026 138.089 18.9573C135.443 16.3121 131.857 14.8242 128.116 14.8203V14.8203Z" fill="#426572"/>
<path d="M135.649 22.8307C135.327 22.6509 134.948 22.6027 134.592 22.6961C134.236 22.7895 133.929 23.0174 133.737 23.3318L131.155 27.5527L127.029 34.2901L126.914 34.479L122.15 30.6682L121.282 29.9741C120.712 29.5185 119.853 29.3751 119.305 29.9741C118.839 30.4819 118.696 31.4628 119.305 31.9505L125.43 36.8494L126.299 37.5435C126.659 37.833 127.002 37.9911 127.473 37.9281C127.683 37.9023 127.884 37.8284 128.061 37.7122C128.238 37.596 128.386 37.4407 128.494 37.2581L131.076 33.0372L135.203 26.3012L136.156 24.7442C136.532 24.1197 136.307 23.1818 135.649 22.8307V22.8307Z" fill="white"/>
<defs>
<linearGradient id="paint0_linear_204_8043" x1="0.176984" y1="49.7386" x2="168.113" y2="49.7386" gradientUnits="userSpaceOnUse">
<stop stop-color="#C5E9FA"/>
<stop offset="1" stop-color="#C4F4EA"/>
</linearGradient>
</defs>
</svg>
