<svg width="173" height="110" viewBox="0 0 173 110" fill="none" xmlns="http://www.w3.org/2000/svg">
<path d="M163.232 69.8351C157.142 85.6039 145.692 99.419 129.788 105.49C127.719 106.279 125.607 106.948 123.462 107.494C112.115 110.387 99.7017 109.38 89.2419 104.108C84.8026 101.868 80.7545 98.9098 76.2991 96.7029C71.8438 94.4959 66.7559 93.0528 61.9066 94.1422C57.7312 95.0802 54.2084 97.7681 50.6615 100.163C42.3001 105.808 32.2463 110.275 22.3453 108.336C17.7894 107.445 13.3032 104.977 11.1874 100.851C6.51091 91.7302 15.3306 80.8859 13.5444 70.7986C12.4014 64.3426 7.18089 59.508 3.93549 53.8105C-1.61734 44.0649 -0.959416 31.1194 5.55149 21.9862C12.0624 12.853 24.0846 8.01168 35.1072 10.0833C48.5484 12.6091 58.7107 23.9868 71.7808 28.0067C79.9546 30.5218 88.8292 29.7714 96.6359 26.459C109.249 21.1059 126.577 12.8959 140.772 14.2332C148.32 14.9447 155.723 18.2946 160.705 24.0149C167.003 31.236 168.891 41.4881 167.84 51.0099C167.12 57.4569 165.571 63.7842 163.232 69.8351V69.8351Z" fill="url(#paint0_linear_204_7986)"/>
<path d="M167.284 82.3076C167.004 82.3073 166.726 82.2736 166.454 82.2071C165.594 81.9957 164.847 81.464 164.366 80.7206C163.884 79.9772 163.705 79.0781 163.864 78.207C164.023 77.3358 164.509 76.5583 165.222 76.0331C165.935 75.5079 166.822 75.2746 167.701 75.381C168.58 75.4874 169.385 75.9253 169.953 76.6053C170.52 77.2854 170.806 78.1563 170.753 79.0403C170.7 79.9243 170.311 80.7547 169.667 81.3619C169.022 81.9691 168.17 82.3073 167.284 82.3076ZM167.275 76.9236C166.814 76.925 166.369 77.0953 166.025 77.4022C165.68 77.7091 165.46 78.1315 165.406 78.5896C165.352 79.0476 165.467 79.5097 165.73 79.8886C165.993 80.2675 166.386 80.5369 166.834 80.646C167.075 80.7045 167.325 80.7149 167.57 80.6767C167.815 80.6385 168.05 80.5525 168.261 80.4235C168.473 80.2945 168.657 80.1252 168.803 79.925C168.949 79.7249 169.054 79.498 169.113 79.2572C169.171 79.0164 169.182 78.7664 169.143 78.5216C169.105 78.2767 169.019 78.0418 168.89 77.8302C168.761 77.6186 168.592 77.4345 168.392 77.2884C168.192 77.1423 167.965 77.037 167.724 76.9785C167.577 76.9419 167.426 76.9231 167.275 76.9223V76.9236Z" fill="#E7F6FF"/>
<path d="M164.112 85.9934C164.31 85.1785 163.809 84.3578 162.995 84.1602C162.18 83.9626 161.359 84.463 161.161 85.2779C160.964 86.0927 161.464 86.9135 162.279 87.1111C163.094 87.3086 163.915 86.8083 164.112 85.9934Z" fill="#E7F6FF"/>
<path d="M7.39531 81.9766C6.47495 81.9565 5.59967 81.5742 4.95948 80.9127C4.31929 80.2511 3.96586 79.3638 3.97592 78.4433C3.98597 77.5228 4.3587 76.6434 5.0132 75.996C5.66769 75.3486 6.55111 74.9855 7.47169 74.9855C8.39226 74.9855 9.27568 75.3486 9.93018 75.996C10.5847 76.6434 10.9574 77.5228 10.9675 78.4433C10.9775 79.3638 10.6241 80.2511 9.98389 80.9127C9.3437 81.5742 8.46842 81.9565 7.54806 81.9766H7.39531ZM7.39531 76.594H7.31625C6.81917 76.6047 6.34641 76.8111 6.00059 77.1684C5.65478 77.5256 5.46383 78.0048 5.46921 78.502C5.4746 78.9991 5.67587 79.4741 6.02934 79.8238C6.3828 80.1734 6.85993 80.3696 7.35712 80.3696C7.85431 80.3696 8.33144 80.1734 8.6849 79.8238C9.03837 79.4741 9.23964 78.9991 9.24502 78.502C9.2504 78.0048 9.05946 77.5256 8.71365 77.1684C8.36783 76.8111 7.89506 76.6047 7.39799 76.594H7.39531Z" fill="#E7F6FF"/>
<path d="M4.90288 87.8438C5.74057 87.8077 6.39036 87.0993 6.35422 86.2616C6.31809 85.4239 5.60971 84.7741 4.77202 84.8102C3.93433 84.8464 3.28454 85.5548 3.32068 86.3924C3.35681 87.2301 4.06519 87.8799 4.90288 87.8438Z" fill="#E7F6FF"/>
<path d="M95.0145 25.4608C94.18 25.4634 93.3721 25.1673 92.737 24.6259C92.102 24.0845 91.6817 23.3337 91.5523 22.5092C91.4229 21.6848 91.5928 20.8413 92.0315 20.1314C92.4701 19.4214 93.1484 18.892 93.9436 18.6388C94.7388 18.3856 95.5983 18.4255 96.3666 18.7512C97.135 19.0769 97.7613 19.6669 98.1324 20.4144C98.5034 21.1619 98.5946 22.0175 98.3894 22.8264C98.1842 23.6353 97.6962 24.344 97.0138 24.8243C96.4283 25.2363 95.7304 25.4585 95.0145 25.4608V25.4608ZM95.0038 20.0741C94.516 20.0736 94.0469 20.2614 93.6942 20.5983C93.3415 20.9352 93.1324 21.3952 93.1105 21.8825C93.0886 22.3697 93.2556 22.8467 93.5767 23.2138C93.8978 23.581 94.3481 23.8101 94.834 23.8534C95.3198 23.8966 95.8036 23.7508 96.1845 23.4461C96.5654 23.1415 96.8141 22.7016 96.8787 22.2181C96.9432 21.7346 96.8187 21.2449 96.5311 20.851C96.2435 20.457 95.8149 20.1893 95.3348 20.1036C95.2255 20.0841 95.1148 20.0742 95.0038 20.0741V20.0741Z" fill="#E7F6FF"/>
<path d="M87.8875 25.2649C88.574 24.7835 88.7402 23.8368 88.2588 23.1503C87.7774 22.4638 86.8306 22.2975 86.1441 22.7789C85.4576 23.2603 85.2914 24.2071 85.7728 24.8936C86.2542 25.5801 87.201 25.7463 87.8875 25.2649Z" fill="#E7F6FF"/>
<path d="M172.32 43.4646C172.32 41.9912 171.735 40.5781 170.693 39.5362C169.651 38.4944 168.238 37.9091 166.765 37.9091C166.641 37.9091 166.519 37.9091 166.399 37.9211C166.407 37.8005 166.411 37.6786 166.411 37.5553C166.411 36.7657 166.242 35.9852 165.917 35.2659C165.591 34.5465 165.116 33.9048 164.523 33.3836C163.93 32.8623 163.232 32.4734 162.477 32.2429C161.722 32.0124 160.926 31.9455 160.143 32.0467C159.36 32.1479 158.608 32.4149 157.936 32.8298C157.264 33.2447 156.688 33.7981 156.247 34.453C155.806 35.1079 155.51 35.8493 155.378 36.6278C155.246 37.4063 155.281 38.2039 155.482 38.9676C154.81 38.4805 154.038 38.1501 153.222 38.0005C152.406 37.8509 151.567 37.886 150.766 38.1033C149.965 38.3205 149.223 38.7143 148.595 39.2559C147.966 39.7974 147.467 40.4728 147.133 41.2326C146.8 41.9924 146.641 42.8172 146.668 43.6464C146.695 44.4757 146.907 45.2884 147.29 46.0247C147.672 46.7611 148.214 47.4025 148.877 47.9018C149.54 48.4012 150.306 48.7457 151.119 48.9102C151.451 49.7903 152.001 50.5717 152.717 51.1812C153.433 51.7907 154.293 52.2084 155.215 52.3951C156.137 52.5817 157.091 52.5313 157.988 52.2485C158.885 51.9657 159.695 51.4598 160.343 50.7781C161.007 51.2787 161.773 51.6241 162.588 51.789C163.402 51.9539 164.243 51.934 165.049 51.7309C165.854 51.5277 166.604 51.1465 167.243 50.6152C167.882 50.0839 168.393 49.4161 168.74 48.661C169.793 48.2601 170.7 47.5484 171.339 46.6203C171.978 45.6922 172.321 44.5916 172.32 43.4646V43.4646Z" fill="white"/>
<path d="M25.6537 30.1051C25.6537 28.6319 25.0686 27.219 24.027 26.1772C22.9855 25.1354 21.5727 24.5499 20.0996 24.5496C19.9763 24.5496 19.8543 24.5496 19.7338 24.5616C19.7418 24.441 19.7458 24.3191 19.7458 24.1958C19.7457 23.4062 19.5772 22.6257 19.2516 21.9064C18.9261 21.187 18.4509 20.5453 17.8579 20.0241C17.2648 19.5028 16.5674 19.1139 15.8122 18.8834C15.057 18.6529 14.2614 18.586 13.4783 18.6872C12.6952 18.7884 11.9427 19.0554 11.2709 19.4703C10.5991 19.8852 10.0235 20.4386 9.58242 21.0935C9.14134 21.7484 8.84493 22.4898 8.71295 23.2683C8.58097 24.0468 8.61645 24.8445 8.81703 25.6081C8.14559 25.1212 7.37365 24.7908 6.55785 24.6412C5.74205 24.4915 4.90309 24.5264 4.10255 24.7434C3.30201 24.9603 2.56019 25.3537 1.93154 25.8947C1.3029 26.4358 0.803368 27.1107 0.46962 27.87C0.135871 28.6293 -0.0236277 29.4537 0.00282689 30.2827C0.0292815 31.1117 0.241019 31.9242 0.6225 32.6607C1.00398 33.3972 1.54553 34.0389 2.20739 34.5388C2.86926 35.0386 3.63465 35.3839 4.44739 35.5494C4.77969 36.4286 5.32961 37.2091 6.04569 37.8179C6.76177 38.4266 7.6206 38.8438 8.54181 39.0303C9.46301 39.2168 10.4165 39.1665 11.313 38.8842C12.2094 38.6018 13.0196 38.0967 13.6677 37.4159C14.3309 37.9165 15.0978 38.2619 15.9121 38.4268C16.7264 38.5917 17.5674 38.5718 18.373 38.3687C19.1786 38.1656 19.9284 37.7843 20.5672 37.253C21.206 36.7217 21.7174 36.0539 22.064 35.2988C23.1186 34.8996 24.0269 34.189 24.6681 33.2613C25.3093 32.3336 25.6531 31.2328 25.6537 30.1051V30.1051Z" fill="white"/>
<path d="M127.857 109.159H47.928V107.417H127.857C128.088 107.417 128.31 107.509 128.473 107.672C128.636 107.836 128.728 108.057 128.728 108.288C128.728 108.519 128.636 108.741 128.473 108.904C128.31 109.067 128.088 109.159 127.857 109.159V109.159Z" fill="#426572"/>
<path d="M44.3529 109.159H39.4661C39.2351 109.159 39.0135 109.067 38.8502 108.904C38.6869 108.741 38.5951 108.519 38.5951 108.288C38.5951 108.057 38.6869 107.836 38.8502 107.672C39.0135 107.509 39.2351 107.417 39.4661 107.417H44.3529C44.5839 107.417 44.8055 107.509 44.9688 107.672C45.1322 107.836 45.2239 108.057 45.2239 108.288C45.2239 108.519 45.1322 108.741 44.9688 108.904C44.8055 109.067 44.5839 109.159 44.3529 109.159Z" fill="#426572"/>
<path d="M36.2945 109.159H34.7374C34.5064 109.159 34.2849 109.067 34.1216 108.904C33.9582 108.741 33.8665 108.519 33.8665 108.288C33.8665 108.057 33.9582 107.836 34.1216 107.672C34.2849 107.509 34.5064 107.417 34.7374 107.417H36.2945C36.5255 107.417 36.747 107.509 36.9104 107.672C37.0737 107.836 37.1655 108.057 37.1655 108.288C37.1655 108.519 37.0737 108.741 36.9104 108.904C36.747 109.067 36.5255 109.159 36.2945 109.159Z" fill="#426572"/>
<path d="M155.884 109.159H131.317V107.417H155.884C156.115 107.417 156.336 107.509 156.5 107.672C156.663 107.836 156.755 108.057 156.755 108.288C156.755 108.519 156.663 108.741 156.5 108.904C156.336 109.067 156.115 109.159 155.884 109.159Z" fill="#426572"/>
<path d="M30.2833 109.159H5.71497V107.417H30.2833C30.5143 107.417 30.7358 107.509 30.8992 107.672C31.0625 107.836 31.1543 108.057 31.1543 108.288C31.1543 108.519 31.0625 108.741 30.8992 108.904C30.7358 109.067 30.5143 109.159 30.2833 109.159Z" fill="#426572"/>
<path d="M132.906 16.554V108.517H34.6382V16.554C34.6428 14.8608 35.3173 13.2383 36.5145 12.0409C37.7116 10.8435 39.334 10.1686 41.0272 10.1637H126.517C128.21 10.1686 129.833 10.8435 131.03 12.0409C132.227 13.2383 132.902 14.8608 132.906 16.554V16.554Z" fill="white"/>
<path d="M39.9659 25.3281H126.506V108.517H39.9659V25.3281Z" fill="white"/>
<path opacity="0.4" d="M132.37 14.7316V16.0274C131.581 14.2559 129.13 12.9562 126.249 12.9562H40.7591C37.2444 12.9562 34.3702 14.8911 34.3702 17.2575V76.6261H34.1022V14.7316C34.1022 12.3666 36.9764 10.4303 40.4911 10.4303H125.981C129.496 10.4317 132.37 12.3666 132.37 14.7316Z" fill="#C1CEDE"/>
<path d="M133.174 109.187H33.2982V16.42C33.3003 14.5128 34.0588 12.6844 35.4073 11.3357C36.7557 9.98697 38.584 9.22816 40.4912 9.22568H125.981C127.888 9.22816 129.717 9.98697 131.065 11.3357C132.414 12.6844 133.172 14.5128 133.174 16.42V48.4868H131.566V16.42C131.565 14.939 130.976 13.5192 129.929 12.4719C128.882 11.4246 127.462 10.8354 125.981 10.8336H40.4912C39.0102 10.8354 37.5905 11.4246 36.5435 12.4719C35.4964 13.5192 34.9076 14.939 34.9062 16.42V107.579H131.566V67.2463H133.174V109.187Z" fill="#426572"/>
<path d="M41.2509 32.7944H126.153V27.1424L126.017 25.0226H50.1041H40.3143L40.179 27.1424V32.7944H41.2509Z" fill="#E2F2FF"/>
<path d="M121.327 28.138H44.0796C43.5986 28.138 43.2086 28.528 43.2086 29.009V29.411C43.2086 29.892 43.5986 30.2819 44.0796 30.2819H121.327C121.808 30.2819 122.198 29.892 122.198 29.411V29.009C122.198 28.528 121.808 28.138 121.327 28.138Z" fill="#CADCE8"/>
<path d="M127.31 109.053H39.162V24.2548H127.31V109.053ZM40.7699 107.445H125.703V25.8628H40.7699V107.445Z" fill="#426572"/>
<path d="M95.036 82.455H114.653V102.421H95.036V82.455Z" fill="#DDE4ED"/>
<path d="M54.1495 82.455H93.3838V102.421H54.1495V82.455Z" fill="#DDE4ED"/>
<path d="M97.3916 41.3849H114.63V48.8888H97.3916V41.3849Z" fill="#E8837E"/>
<path d="M97.3916 50.2502H114.63V57.754H97.3916V50.2502Z" fill="#87D6FE"/>
<path d="M97.3916 67.9833H114.63V75.4871H97.3916V67.9833Z" fill="#FBC907"/>
<path d="M97.3916 59.1167H114.63V66.6206H97.3916V59.1167Z" fill="#A8EF9E"/>
<path opacity="0.2" d="M49.1876 24.839C50.131 23.0807 50.712 21.1509 50.8962 19.164C51.0803 17.177 50.8639 15.1734 50.2598 13.2716C49.6556 11.3698 48.676 9.60854 47.3789 8.09217C46.0819 6.5758 44.4937 5.33512 42.7085 4.44359C40.9233 3.55206 38.9773 3.02781 36.9858 2.90189C34.9944 2.77597 32.9979 3.05094 31.1146 3.71051C29.2313 4.37008 27.4995 5.40084 26.0218 6.74176C24.544 8.08268 23.3504 9.7065 22.5115 11.517C21.348 13.7019 20.7465 16.1418 20.7611 18.6171C20.7758 21.0923 21.4061 23.525 22.5953 25.696C23.7845 27.8669 25.4952 29.7077 27.5732 31.0527C29.6513 32.3976 32.0313 33.2043 34.4989 33.4001C34.0683 33.5019 33.631 33.5845 33.187 33.648C35.5229 33.9848 37.9053 33.7625 40.1385 32.9994C42.3718 32.2362 44.392 30.9541 46.0333 29.2582C47.3456 27.99 48.4147 26.4923 49.1876 24.839V24.839Z" fill="#606060"/>
<path opacity="0.2" d="M136.347 5.2165C134.421 4.71421 132.413 4.60272 130.443 4.8886C128.472 5.17448 126.579 5.85194 124.875 6.88105C123.171 7.91016 121.689 9.27009 120.519 10.8806C119.348 12.4912 118.512 14.3198 118.06 16.2587C117.607 18.1975 117.547 20.2073 117.884 22.1697C118.22 24.132 118.946 26.0071 120.019 27.6845C121.091 29.3618 122.489 30.8074 124.129 31.9361C125.769 33.0648 127.619 33.8537 129.568 34.2563C131.963 34.8822 134.476 34.9022 136.881 34.3147C139.286 33.7271 141.506 32.5504 143.343 30.8906C145.179 29.2307 146.574 27.14 147.401 24.8068C148.228 22.4736 148.461 19.9713 148.08 17.5255C148.278 17.9203 148.46 18.3263 148.625 18.7435C148.412 16.3932 147.644 14.1271 146.384 12.1315C145.124 10.1359 143.409 8.46767 141.379 7.26397C139.841 6.27994 138.135 5.586 136.347 5.2165V5.2165Z" fill="#606060"/>
<path opacity="0.2" d="M50.0907 84.5306C50.9614 82.9006 51.4965 81.1126 51.6645 79.2723C51.8325 77.432 51.6299 75.5766 51.0687 73.8159C50.5075 72.0552 49.5991 70.4249 48.3972 69.0212C47.1953 67.6175 45.7242 66.4689 44.0708 65.6434C42.4175 64.8178 40.6155 64.3321 38.7713 64.2147C36.927 64.0974 35.078 64.3509 33.3333 64.9603C31.5887 65.5696 29.984 66.5225 28.6138 67.7626C27.2437 69.0026 26.136 70.5047 25.3562 72.1801C24.2773 74.2057 23.7194 76.4679 23.7328 78.7629C23.7462 81.0578 24.3305 83.3134 25.4331 85.3262C26.5357 87.339 28.1219 89.0457 30.0486 90.2926C31.9753 91.5395 34.1821 92.2873 36.4699 92.4686C36.0706 92.5624 35.6655 92.6392 35.2546 92.699C37.4206 93.0116 39.63 92.8056 41.7009 92.0979C43.7718 91.3902 45.6451 90.2011 47.1669 88.6282C48.3835 87.4523 49.3744 86.0635 50.0907 84.5306Z" fill="#606060"/>
<path d="M34.0152 29.9228C42.2519 29.9228 48.929 23.2457 48.929 15.009C48.929 6.7723 42.2519 0.0951385 34.0152 0.0951385C25.7785 0.0951385 19.1013 6.7723 19.1013 15.009C19.1013 23.2457 25.7785 29.9228 34.0152 29.9228Z" fill="#A8EF9E"/>
<path d="M48.2188 16.0743C48.2185 18.2127 47.7583 20.326 46.8695 22.2709C45.9807 24.2159 44.684 25.9469 43.0675 27.3468C41.451 28.7466 39.5523 29.7825 37.5003 30.3842C35.4483 30.9859 33.2909 31.1393 31.1744 30.834C34.7233 30.321 37.9685 28.5466 40.3156 25.8358C42.6627 23.125 43.9546 19.6593 43.9546 16.0736C43.9546 12.4879 42.6627 9.02221 40.3156 6.31141C37.9685 3.60061 34.7233 1.82619 31.1744 1.31318C33.291 1.00789 35.4486 1.16133 37.5007 1.76309C39.5528 2.36485 41.4515 3.40086 43.068 4.80085C44.6846 6.20085 45.9812 7.93209 46.8699 9.87719C47.7586 11.8223 48.2186 13.9358 48.2188 16.0743Z" fill="#A7E59C"/>
<path d="M33.6601 31.4357C30.5513 31.4357 27.5124 30.5138 24.9276 28.7866C22.3428 27.0595 20.3282 24.6046 19.1386 21.7325C17.949 18.8603 17.6378 15.6999 18.2444 12.6509C18.851 9.60195 20.3481 6.8013 22.5464 4.60318C24.7447 2.40505 27.5455 0.908182 30.5945 0.301857C33.6436 -0.304467 36.8039 0.00698944 39.676 1.19684C42.548 2.38669 45.0027 4.40149 46.7296 6.98645C48.4566 9.57141 49.3782 12.6104 49.3779 15.7192C49.373 19.8862 47.7153 23.881 44.7687 26.8274C41.8221 29.7738 37.8271 31.4311 33.6601 31.4357V31.4357ZM33.6601 1.60931C30.8694 1.60931 28.1414 2.43684 25.8211 3.98725C23.5007 5.53766 21.6922 7.74132 20.6243 10.3196C19.5563 12.8978 19.2769 15.7348 19.8213 18.4719C20.3658 21.2089 21.7096 23.7231 23.6829 25.6964C25.6562 27.6697 28.1704 29.0135 30.9074 29.5579C33.6444 30.1024 36.4815 29.8229 39.0597 28.755C41.638 27.6871 43.8416 25.8786 45.392 23.5582C46.9424 21.2378 47.77 18.5098 47.77 15.7192C47.7661 11.9782 46.2782 8.39157 43.633 5.7463C40.9877 3.10104 37.4011 1.61321 33.6601 1.60931V1.60931Z" fill="#426572"/>
<path d="M134.711 2.35968C130.861 2.36643 127.171 3.90149 124.452 6.62752C121.733 9.35355 120.208 13.0475 120.211 16.8976C120.215 20.7478 121.747 24.4391 124.47 27.1603C127.194 29.8816 130.886 31.4102 134.737 31.4102C138.587 31.4102 142.279 29.8816 145.003 27.1603C147.727 24.4391 149.258 20.7478 149.262 16.8976C149.265 13.0475 147.74 9.35355 145.021 6.62752C142.302 3.90149 138.612 2.36643 134.762 2.35968H134.711Z" fill="#87D6FE"/>
<path d="M149.386 17.0538C149.382 20.4875 148.163 23.809 145.945 26.4302C143.727 29.0514 140.653 30.8034 137.267 31.3759C133.882 31.9484 130.403 31.3045 127.446 29.5583C124.49 27.8121 122.246 25.0762 121.113 21.8348C121.189 21.7956 121.267 21.762 121.348 21.7343C122.831 21.2171 124.161 22.7018 125.268 23.8139C127.604 26.1602 131.066 27.4091 134.328 26.849C137.589 26.2889 140.514 23.834 141.404 20.6463C142.208 17.7774 141.456 14.4569 143.06 11.9472C143.527 11.2387 144.153 10.6496 144.889 10.2272C145.624 9.80476 146.449 9.56088 147.296 9.51514C148.673 11.7879 149.396 14.3965 149.386 17.0538V17.0538Z" fill="#37B5FF"/>
<path d="M135.113 32.4152C131.043 32.4152 127.139 30.7983 124.261 27.9202C121.383 25.0422 119.766 21.1387 119.766 17.0685C119.766 12.9983 121.383 9.09485 124.261 6.21679C127.139 3.33874 131.043 1.72186 135.113 1.72186H135.164C139.234 1.72862 143.135 3.35197 146.008 6.2348C148.881 9.11763 150.492 13.0238 150.485 17.094C150.478 21.1642 148.855 25.065 145.972 27.9383C143.089 30.8115 139.183 32.4219 135.113 32.4152V32.4152ZM135.113 3.32982C131.481 3.3364 128 4.78479 125.435 7.35672C122.87 9.92866 121.431 13.4137 121.434 17.0461C121.437 20.6784 122.882 24.1608 125.452 26.7281C128.022 29.2954 131.505 30.7375 135.138 30.7375C138.77 30.7375 142.254 29.2954 144.824 26.7281C147.393 24.1608 148.838 20.6784 148.842 17.0461C148.845 13.4137 147.406 9.92866 144.841 7.35672C142.276 4.78479 138.795 3.3364 135.163 3.32982H135.113Z" fill="#426572"/>
<path d="M136.982 27.8057C132.255 27.8057 131.304 24.1704 131.074 23.2605V15.9899H128.348V12.3545C129.604 11.7335 130.705 10.8387 131.57 9.73613C132.436 8.63352 133.043 7.35104 133.347 5.98297H136.074V12.3545H140.161V15.9899H136.074V22.3614C136.208 23.3597 136.753 24.09 137.892 24.1797C139.073 24.09 139.711 23.5433 139.757 23.3302L139.711 23.2833C139.722 23.2822 139.733 23.2855 139.742 23.2925C139.75 23.2995 139.756 23.3097 139.757 23.3208C139.758 23.3239 139.758 23.3271 139.757 23.3302L141.075 26.0101C141.075 26.0101 139.893 27.8057 136.982 27.8057Z" fill="white"/>
<path d="M32.7395 63.1943C28.8894 63.201 25.1995 64.7361 22.4806 67.4621C19.7617 70.1881 18.2364 73.8821 18.2398 77.7322C18.2431 81.5824 19.7749 85.2737 22.4986 87.9949C25.2222 90.7162 28.9149 92.2448 32.765 92.2448C36.6151 92.2448 40.3078 90.7162 43.0314 87.9949C45.7551 85.2737 47.2869 81.5824 47.2903 77.7322C47.2936 73.8821 45.7683 70.1881 43.0494 67.4621C40.3305 64.7361 36.6406 63.201 32.7905 63.1943H32.7395Z" fill="#E8837E"/>
<path d="M47.4148 77.8884C47.4105 81.3221 46.1914 84.6435 43.9734 87.2648C41.7553 89.886 38.6814 91.6379 35.2958 92.2104C31.9101 92.7829 28.4311 92.1391 25.4745 90.3929C22.518 88.6467 20.2746 85.9108 19.1415 82.6694C19.2171 82.6302 19.2955 82.5966 19.376 82.5689C20.8593 82.0516 22.1899 83.5363 23.2967 84.6485C25.6323 86.9948 29.0948 88.2436 32.3562 87.6835C35.6177 87.1234 38.5429 84.6686 39.4326 81.4808C40.2366 78.6119 39.4849 75.2915 41.0888 72.7817C41.5553 72.0733 42.1816 71.4841 42.9173 71.0617C43.6529 70.6393 44.4774 70.3954 45.3245 70.3497C46.7013 72.6225 47.4246 75.231 47.4148 77.8884V77.8884Z" fill="#D66765"/>
<path d="M33.1415 93.2497C29.0713 93.2497 25.1678 91.6329 22.2897 88.7548C19.4117 85.8768 17.7948 81.9733 17.7948 77.9031C17.7948 73.8329 19.4117 69.9294 22.2897 67.0514C25.1678 64.1733 29.0713 62.5564 33.1415 62.5564H33.1924C37.2626 62.5632 41.1634 64.1865 44.0366 67.0694C46.9099 69.9522 48.5203 73.8584 48.5136 77.9285C48.5068 81.9987 46.8835 85.8995 44.0006 88.7728C41.1178 91.6461 37.2116 93.2565 33.1415 93.2497V93.2497ZM33.1415 64.1644C29.5091 64.171 26.028 65.6194 23.463 68.1913C20.8981 70.7632 19.4591 74.2483 19.4624 77.8806C19.4657 81.513 20.9109 84.9954 23.4805 87.5627C26.0502 90.13 29.5339 91.5721 33.1662 91.5721C36.7986 91.5721 40.2823 90.13 42.852 87.5627C45.4216 84.9954 46.8668 81.513 46.8701 77.8806C46.8734 74.2483 45.4344 70.7632 42.8695 68.1913C40.3045 65.6194 36.8234 64.171 33.191 64.1644H33.1415Z" fill="#426572"/>
<path d="M31.0404 86.2417V76.5136L28.3604 79.168L25.6564 76.3541L31.7063 70.4274H35.816V86.2417H31.0404Z" fill="white"/>
<path d="M93.9238 78.7701H54.8824L62.9223 67.6671L68.2821 72.8554L75.94 59.7224L93.9238 78.7701Z" fill="#DDE4ED"/>
<path d="M69.7521 58.2484C70.4909 58.2484 71.2132 58.0293 71.8276 57.6188C72.4419 57.2083 72.9208 56.6249 73.2035 55.9422C73.4863 55.2596 73.5603 54.5085 73.4161 53.7838C73.272 53.0591 72.9162 52.3934 72.3937 51.871C71.8712 51.3485 71.2056 50.9927 70.4809 50.8485C69.7562 50.7044 69.0051 50.7784 68.3224 51.0611C67.6398 51.3439 67.0563 51.8227 66.6458 52.4371C66.2353 53.0514 66.0162 53.7737 66.0162 54.5126C66.0205 55.5021 66.4154 56.4499 67.1151 57.1496C67.8148 57.8492 68.7626 58.2442 69.7521 58.2484Z" fill="#DDE4ED"/>
<path d="M131.513 61.2379H133.121V64.2528H131.513V61.2379Z" fill="#426572"/>
<path d="M131.513 51.1667H133.121V59.2949H131.513V51.1667Z" fill="#426572"/>
<path d="M39.2423 22.2824C34.866 22.9028 29.4713 21.2975 29.4713 21.2975L26.8114 21.8268C26.6948 21.8492 26.5747 21.8451 26.4599 21.8147C26.3451 21.7842 26.2387 21.7283 26.1485 21.651C26.0584 21.5737 25.9868 21.4771 25.9392 21.3683C25.8915 21.2596 25.8691 21.1414 25.8734 21.0228C25.9273 19.1206 25.8785 17.2168 25.7274 15.3199C25.714 15.1828 25.7368 15.0446 25.7935 14.9191C25.8503 14.7936 25.939 14.6852 26.0507 14.6048C26.1625 14.5243 26.2935 14.4747 26.4305 14.4607C26.5675 14.4467 26.7058 14.469 26.8315 14.5253C27.4308 14.821 28.0876 14.982 28.7557 14.9969C30.3704 14.9835 31.78 13.7454 32.5009 12.2755C33.2218 10.8055 33.3853 9.85281 33.5367 8.21805C33.6024 7.50384 33.7069 6.71192 34.2496 6.25365C35.1876 5.45905 36.7312 6.38765 37.0354 7.58692C37.3395 8.78619 36.8491 9.31548 36.4351 10.4853C36.1671 11.2464 36.226 11.2893 36.009 12.0731C35.9813 12.1368 35.9677 12.2056 35.9691 12.275C35.9705 12.3444 35.9868 12.4126 36.017 12.4751C36.0558 12.5187 36.1033 12.5538 36.1563 12.5783C36.2093 12.6027 36.2668 12.6159 36.3252 12.6172C37.2015 12.7297 37.7764 13.0567 38.6541 13.1532C39.0573 13.1967 39.4404 13.3517 39.7606 13.6007C40.0808 13.8496 40.3254 14.1827 40.467 14.5628V21.1407C40.4684 21.2976 40.4372 21.4531 40.3753 21.5974C40.3135 21.7416 40.2224 21.8714 40.1078 21.9786C39.9931 22.0858 39.8575 22.1681 39.7094 22.2201C39.5614 22.2722 39.4041 22.2929 39.2477 22.281L39.2423 22.2824Z" fill="#85D175"/>
<defs>
<linearGradient id="paint0_linear_204_7986" x1="0.176877" y1="59.3472" x2="168.112" y2="59.3472" gradientUnits="userSpaceOnUse">
<stop stop-color="#C5E9FA"/>
<stop offset="1" stop-color="#C4F4EA"/>
</linearGradient>
</defs>
</svg>
