<svg width="109" height="112" viewBox="0 0 109 112" fill="none" xmlns="http://www.w3.org/2000/svg">
<path d="M70.7352 12.5807H4.69828C2.69373 12.5807 1.06873 14.8295 1.06873 17.6036V40.2673C1.06873 43.0414 2.69373 45.2903 4.69828 45.2903H70.7352C72.7398 45.2903 74.3648 43.0414 74.3648 40.2673V17.6036C74.3648 14.8295 72.7398 12.5807 70.7352 12.5807Z" fill="#1DCDFF"/>
<path d="M74.3649 33.0532V43.3311C74.3649 44.4138 72.7887 45.2903 70.8557 45.2903H4.58231C2.64359 45.2903 1.07312 44.4138 1.07312 43.3311V37.3821C5.54092 39.0201 10.6277 40.1246 15.845 40.8107C22.1497 41.6396 28.648 41.8815 35.119 41.9172C42.8567 41.9609 50.7233 41.7011 58.0068 40.2475C64.6813 38.9209 70.87 36.4699 74.3649 33.0532Z" fill="#1AB5E1"/>
<path d="M27.5688 12.664C20.6636 13.3105 11.0732 12.6858 5.11374 15.0635C2.28948 16.1878 1.59022 18.3731 1.13599 20.1796L1.14315 15.123C1.14315 14.4745 1.18327 13.7686 1.93268 13.2728C2.85977 12.6621 4.48899 12.6145 5.92333 12.6164C12.9661 12.6184 20.6651 12.1901 27.5688 12.664V12.664Z" fill="#4ED9FF"/>
<path d="M70.6665 12.6205H4.62955C2.62501 12.6205 1 14.8693 1 17.6434V40.3071C1 43.0812 2.62501 45.3301 4.62955 45.3301H70.6665C72.671 45.3301 74.296 43.0812 74.296 40.3071V17.6434C74.296 14.8693 72.671 12.6205 70.6665 12.6205Z" stroke="#314E5D" stroke-width="1.8554" stroke-miterlimit="10"/>
<path d="M103.835 63.3457H28.3512C26.3467 63.3457 24.7217 65.5945 24.7217 68.3686V91.0323C24.7217 93.8064 26.3467 96.0553 28.3512 96.0553H103.835C105.84 96.0553 107.465 93.8064 107.465 91.0323V68.3686C107.465 65.5945 105.84 63.3457 103.835 63.3457Z" fill="#1DCDFF"/>
<path d="M107.465 83.8181V94.0959C107.465 95.1787 105.691 96.0552 103.503 96.0552H28.6837C26.4956 96.0552 24.7217 95.1787 24.7217 94.0959V88.1469C29.7655 89.7849 35.5086 90.8894 41.3978 91.5756C48.5079 92.4044 55.8501 92.6464 63.1565 92.6821C71.8887 92.7257 80.7727 92.4659 88.9947 91.0124C96.5332 89.6858 103.52 87.2348 107.465 83.8181V83.8181Z" fill="#1AB5E1"/>
<path d="M54.6365 63.4289C46.8415 64.0754 36.0087 63.4507 29.287 65.8283C26.0959 66.9547 25.3092 69.1399 24.7948 70.9465L24.8048 65.8878C24.8048 65.2394 24.8493 64.5334 25.6961 64.0377C26.7436 63.4269 28.582 63.3793 30.2012 63.3813C38.1509 63.3833 46.8444 62.955 54.6365 63.4289V63.4289Z" fill="#4ED9FF"/>
<path d="M103.757 63.3852H28.2725C26.268 63.3852 24.6429 65.634 24.6429 68.4081V91.0718C24.6429 93.8459 26.268 96.0948 28.2725 96.0948H103.757C105.761 96.0948 107.386 93.8459 107.386 91.0718V68.4081C107.386 65.634 105.761 63.3852 103.757 63.3852Z" stroke="#314E5D" stroke-width="1.8554" stroke-miterlimit="10"/>
<path d="M93.593 1.44229H15.3449C14.0897 1.44229 13.0723 2.85037 13.0723 4.58733V106.444C13.0723 108.181 14.0897 109.589 15.3449 109.589H93.593C94.8481 109.589 95.8656 108.181 95.8656 106.444V4.58733C95.8656 2.85037 94.8481 1.44229 93.593 1.44229Z" fill="white"/>
<path d="M96.2239 5.80085V21.7303H13.432V5.80085C13.432 3.15156 14.4494 1 15.7046 1H93.9513C95.2066 1 96.2239 3.15156 96.2239 5.80085V5.80085Z" fill="#DCEAEF"/>
<path d="M93.4943 1.26181H15.2461C13.991 1.26181 12.9735 2.66989 12.9735 4.40685V107.045C12.9735 108.782 13.991 110.19 15.2461 110.19H93.4943C94.7494 110.19 95.7669 108.782 95.7669 107.045V4.40685C95.7669 2.66989 94.7494 1.26181 93.4943 1.26181Z" stroke="#314E5D" stroke-width="1.8554" stroke-miterlimit="10"/>
<path d="M20.7741 14.7898C21.7237 14.7898 22.4935 13.7244 22.4935 12.4102C22.4935 11.096 21.7237 10.0306 20.7741 10.0306C19.8244 10.0306 19.0546 11.096 19.0546 12.4102C19.0546 13.7244 19.8244 14.7898 20.7741 14.7898Z" fill="#EEA248"/>
<path d="M26.3624 14.7898C27.3121 14.7898 28.0819 13.7244 28.0819 12.4102C28.0819 11.096 27.3121 10.0306 26.3624 10.0306C25.4128 10.0306 24.6429 11.096 24.6429 12.4102C24.6429 13.7244 25.4128 14.7898 26.3624 14.7898Z" fill="#EEA248"/>
<path d="M31.9508 14.7898C32.9005 14.7898 33.6703 13.7244 33.6703 12.4102C33.6703 11.096 32.9005 10.0306 31.9508 10.0306C31.0012 10.0306 30.2313 11.096 30.2313 12.4102C30.2313 13.7244 31.0012 14.7898 31.9508 14.7898Z" fill="#EEA248"/>
<path d="M28.344 45.0623C28.344 42.7938 28.9057 41.5207 29.9832 41.5207C31.0608 41.5207 31.6225 42.7938 31.6225 45.0623C31.6225 47.3309 31.0608 48.6139 29.9832 48.6139C28.9057 48.6139 28.344 47.3408 28.344 45.0623ZM30.9404 45.0623C30.9404 43.0615 30.5894 42.2465 29.9847 42.2465C29.38 42.2465 29.0289 43.0615 29.0289 45.0623C29.0289 47.0632 29.3886 47.8881 29.9847 47.8881C30.5808 47.8881 30.9404 47.0691 30.9404 45.0623ZM29.9832 44.4159C30.0768 44.4147 30.1686 44.4521 30.2468 44.5233C30.3249 44.5946 30.386 44.6964 30.4222 44.8159C30.4584 44.9353 30.4681 45.067 30.4501 45.1941C30.432 45.3212 30.3871 45.438 30.3209 45.5296C30.2547 45.6212 30.1703 45.6834 30.0784 45.7084C29.9866 45.7334 29.8915 45.72 29.8051 45.6699C29.7188 45.6197 29.6452 45.5352 29.5938 45.427C29.5423 45.3188 29.5153 45.1919 29.5161 45.0623C29.5157 44.9773 29.5276 44.893 29.5509 44.8143C29.5742 44.7356 29.6086 44.6642 29.6521 44.604C29.6955 44.5439 29.7472 44.4963 29.804 44.464C29.8609 44.4317 29.9218 44.4153 29.9832 44.4159V44.4159Z" fill="#426372"/>
<path d="M34.272 42.6449L33.0856 43.6364L32.7689 42.9999L34.3451 41.6356H34.9269V47.7551H35.9399V48.4928H33.0584V47.7551H34.2735V42.6449H34.272Z" fill="#426372"/>
<path d="M44.1463 42.5657L44.4629 43.2518L41.9468 45.3815L44.4629 47.5192L44.1176 48.1875L41.3765 45.8198V44.9354L44.1463 42.5657Z" fill="#426372"/>
<path d="M48.1268 48.4948V45.2843H46.3285V48.4968H45.6465V41.6416H46.3285V44.507H48.1254V41.6416H48.8075V48.4968L48.1268 48.4948Z" fill="#426372"/>
<path d="M51.8682 42.4367V48.4968H51.1861V42.4367H49.6558V41.6435H53.4229L53.3512 42.4367H51.8682Z" fill="#426372"/>
<path d="M57.1511 48.4948L57.0078 44.9829C56.972 44.0172 56.972 42.9047 56.9791 42.6846H56.9562L56.1667 47.2673H55.5118L54.6922 42.6806H54.6635C54.6635 42.9087 54.6779 44.0945 54.6492 44.9789L54.5274 48.4908H53.8955L54.1821 41.6356H55.0877L55.85 46.2124H55.8787L56.6051 41.6356H57.5179L57.8045 48.4908L57.1511 48.4948Z" fill="#426372"/>
<path d="M58.9453 48.4948V41.6416H59.6274V47.6639H61.877L61.7982 48.4889L58.9453 48.4948Z" fill="#426372"/>
<path d="M66.018 44.9334V45.8178L63.2783 48.1855L62.933 47.5173L65.4492 45.3796L62.933 43.2498L63.2497 42.5637L66.018 44.9334Z" fill="#426372"/>
<path d="M28.344 56.996C28.344 54.7275 28.9057 53.4544 29.9832 53.4544C31.0608 53.4544 31.6225 54.7275 31.6225 56.996C31.6225 59.2646 31.0608 60.5535 29.9832 60.5535C28.9057 60.5535 28.344 59.2725 28.344 56.996ZM30.9404 56.996C30.9404 54.9952 30.5894 54.1801 29.9847 54.1801C29.38 54.1801 29.0289 54.9952 29.0289 56.996C29.0289 58.9969 29.3886 59.8218 29.9847 59.8218C30.5808 59.8218 30.9404 59.0048 30.9404 56.996ZM29.9832 56.3496C30.0768 56.3484 30.1686 56.3858 30.2468 56.457C30.3249 56.5283 30.386 56.6301 30.4222 56.7495C30.4584 56.869 30.4681 57.0007 30.4501 57.1278C30.432 57.2549 30.3871 57.3717 30.3209 57.4633C30.2547 57.5549 30.1703 57.6171 30.0784 57.6421C29.9866 57.6671 29.8915 57.6537 29.8051 57.6035C29.7188 57.5534 29.6452 57.4689 29.5938 57.3607C29.5423 57.2525 29.5153 57.1255 29.5161 56.996C29.5155 56.9108 29.5272 56.8263 29.5505 56.7474C29.5737 56.6685 29.6081 56.5968 29.6516 56.5364C29.695 56.4761 29.7468 56.4283 29.8037 56.3959C29.8606 56.3635 29.9217 56.347 29.9832 56.3476V56.3496Z" fill="#426372"/>
<path d="M33.5112 59.6611H35.7609L35.682 60.4265H32.7346V59.7008C34.4455 57.3529 34.9713 56.407 34.9713 55.3719C34.9784 55.2169 34.9614 55.0617 34.9215 54.9166C34.8816 54.7715 34.8197 54.6399 34.7401 54.5306C34.6604 54.4213 34.5648 54.3368 34.4596 54.2829C34.3544 54.2289 34.2421 54.2067 34.1302 54.2178C33.7204 54.2178 33.4396 54.428 33.1372 54.9535L32.6772 54.5053C33.0656 53.839 33.5542 53.4503 34.166 53.4503C35.0716 53.4503 35.6548 54.2436 35.6548 55.3421C35.6534 56.5379 34.9699 57.7316 33.5112 59.6611V59.6611Z" fill="#426372"/>
<path d="M44.1463 54.4974L44.463 55.1836L41.9468 57.3133L44.463 59.451L44.1176 60.1192L41.3779 57.7515V56.8651L44.1463 54.4974Z" fill="#426372"/>
<path d="M47.098 60.4285H45.7324V53.5732H46.9962C47.8804 53.5732 48.7659 53.9698 48.7659 55.3044C48.7711 55.6498 48.6876 55.9865 48.5301 56.2545C48.3727 56.5226 48.1515 56.7045 47.9061 56.7679V56.8075C48.4019 56.9364 48.9851 57.335 48.9851 58.4693C48.9737 59.9704 48.0251 60.4285 47.098 60.4285ZM47.1123 54.3189H46.4145V56.4664H47.1696C47.7428 56.4664 48.0623 56.1373 48.0623 55.3619C48.0623 54.5866 47.7027 54.3189 47.1123 54.3189ZM47.2198 57.2239H46.4145V59.663H47.1911C47.674 59.663 48.2558 59.4647 48.2558 58.4891C48.2558 57.5135 47.7886 57.2239 47.2198 57.2239Z" fill="#426372"/>
<path d="M51.5386 60.5535C50.3235 60.5535 49.6987 59.1516 49.6987 57.0218C49.6987 54.9337 50.3235 53.4524 51.5386 53.4524C52.7537 53.4524 53.3784 54.8762 53.3784 57.004C53.3799 59.0941 52.7523 60.5535 51.5386 60.5535ZM51.5386 54.2357C50.7333 54.2357 50.4095 55.2113 50.4095 57.0119C50.4095 58.8125 50.7548 59.7683 51.5386 59.7683C52.3439 59.7683 52.6663 58.8125 52.6663 56.9921C52.6663 55.1717 52.3439 54.2278 51.5386 54.2278V54.2357Z" fill="#426372"/>
<path d="M55.4245 60.4285H54.2667V53.5732H55.3457C56.5178 53.5732 57.6813 54.1206 57.6813 56.9662C57.6813 59.8118 56.4748 60.4285 55.4245 60.4285ZM55.4976 54.3307H54.9517V59.6849H55.5048C56.2097 59.6849 56.9563 59.1871 56.9563 56.9701C56.9563 54.6381 56.1668 54.3288 55.4976 54.3288V54.3307Z" fill="#426372"/>
<path d="M60.5057 57.7911V60.4285H59.815V57.801L58.1471 53.5713H58.9022L60.1689 56.9226H60.1919L61.4643 53.5713H62.1807L60.5057 57.7911Z" fill="#426372"/>
<path d="M66.018 56.865V57.7495L63.2783 60.1172L62.933 59.4489L65.4492 57.3112L62.933 55.1815L63.2497 54.4954L66.018 56.865Z" fill="#426372"/>
<path d="M28.344 68.9277C28.344 66.6591 28.9057 65.386 29.9832 65.386C31.0608 65.386 31.6225 66.6591 31.6225 68.9277C31.6225 71.1962 31.0608 72.4792 29.9832 72.4792C28.9057 72.4792 28.344 71.2061 28.344 68.9277ZM30.9404 68.9277C30.9404 66.9268 30.5894 66.1118 29.9847 66.1118C29.38 66.1118 29.0289 66.9268 29.0289 68.9277C29.0289 70.9285 29.3886 71.7534 29.9847 71.7534C30.5808 71.7534 30.9404 70.9364 30.9404 68.9277ZM29.9832 68.2871C30.0768 68.286 30.1686 68.3234 30.2468 68.3946C30.3249 68.4659 30.386 68.5677 30.4222 68.6871C30.4584 68.8066 30.4681 68.9382 30.4501 69.0654C30.432 69.1925 30.3871 69.3093 30.3209 69.4008C30.2547 69.4924 30.1703 69.5547 30.0784 69.5797C29.9866 69.6047 29.8915 69.5912 29.8051 69.5411C29.7188 69.491 29.6452 69.4065 29.5938 69.2983C29.5423 69.1901 29.5153 69.0631 29.5161 68.9336C29.5157 68.8486 29.5276 68.7643 29.5509 68.6856C29.5742 68.6069 29.6086 68.5355 29.6521 68.4753C29.6955 68.4152 29.7472 68.3676 29.804 68.3353C29.8609 68.303 29.9218 68.2866 29.9832 68.2871V68.2871Z" fill="#426372"/>
<path d="M34.1001 72.4793C33.8094 72.4916 33.5203 72.4151 33.2534 72.2554C32.9864 72.0957 32.7481 71.8567 32.5554 71.5552L32.9853 71.0575C33.1209 71.2731 33.2888 71.4453 33.4774 71.5621C33.6659 71.6789 33.8706 71.7374 34.0772 71.7337C34.7449 71.7337 35.149 71.2161 35.149 70.3793C35.149 69.4235 34.7191 69.1062 34.1459 69.1062H33.7648L33.8436 68.4003H34.1001C34.5744 68.4003 35.02 68.0334 35.02 67.2362C35.02 66.5085 34.6174 66.1099 34.1073 66.1099C33.6774 66.1099 33.3908 66.3201 33.0655 66.7365L32.7059 66.1892C33.0878 65.669 33.6029 65.3789 34.1388 65.3821C35.0874 65.3821 35.6777 66.1753 35.6777 67.1034C35.6781 67.4779 35.5845 67.8409 35.4127 68.1304C35.241 68.4198 35.0018 68.6175 34.7363 68.6898V68.7294C35.041 68.7495 35.3277 68.9354 35.5338 69.2467C35.7399 69.5579 35.8488 69.9693 35.8368 70.3912C35.8396 71.5731 35.1418 72.4793 34.1001 72.4793Z" fill="#426372"/>
<path d="M44.1463 66.4291L44.4629 67.1152L41.9468 69.245L44.4629 71.3826L44.1162 72.0549L41.3765 69.6753V68.7909L44.1463 66.4291Z" fill="#426372"/>
<path d="M48.1268 72.3603V69.1478H46.3285V72.3603H45.6465V65.511H46.3285V68.3764H48.1254V65.511H48.8075V72.3662H48.1254L48.1268 72.3603Z" fill="#426372"/>
<path d="M50.8649 66.2586V68.4974H52.6904V69.2529H50.8649V71.6107H53.1017V72.3563H50.1871V65.511H53.0529L52.9741 66.2665L50.8649 66.2586Z" fill="#426372"/>
<path d="M56.7845 70.639H54.8773L54.4962 72.3603H53.8141L55.4175 65.511H56.2773L57.8864 72.3603H57.17L56.7845 70.639ZM55.045 69.8736H56.6212L55.8517 66.3617H55.823L55.045 69.8736Z" fill="#426372"/>
<path d="M59.7363 72.3603H58.5785V65.511H59.6575C60.8296 65.511 61.9931 66.0583 61.9931 68.9039C61.9931 71.7495 60.7852 72.3603 59.7363 72.3603ZM59.8079 66.2606H59.262V71.6147H59.8151C60.5201 71.6147 61.2666 71.1169 61.2666 68.8999C61.2681 66.5699 60.4843 66.2586 59.8079 66.2586V66.2606Z" fill="#426372"/>
<path d="M63.8029 66.2586V68.4974H65.6241V69.2529H63.8029V71.6107H66.0397V72.3563H63.1208V65.511H65.9867L65.9079 66.2665L63.8029 66.2586Z" fill="#426372"/>
<path d="M69.3224 69.3362L70.774 72.3603H69.9615L68.6332 69.4552H68.0013V72.3603H67.3192V65.511H68.6203C69.8569 65.511 70.5031 66.1654 70.5031 67.4504C70.5074 68.4696 69.9902 69.0963 69.3224 69.3362V69.3362ZM68.6891 66.2407H68.007V68.7274H68.6977C69.3883 68.7274 69.7824 68.3705 69.7824 67.4444C69.7795 66.5878 69.4285 66.2407 68.6876 66.2407H68.6891Z" fill="#426372"/>
<path d="M74.64 68.7987V69.6752L71.9003 72.0548L71.5549 71.3866L74.0711 69.2489L71.5549 67.1191L71.8716 66.433L74.64 68.7987Z" fill="#426372"/>
<path d="M28.344 80.8594C28.344 78.5909 28.9057 77.3178 29.9832 77.3178C31.0608 77.3178 31.6211 78.5988 31.6211 80.8594C31.6211 83.1201 31.0594 84.411 29.9818 84.411C28.9043 84.411 28.344 83.1379 28.344 80.8594ZM30.9404 80.8594C30.9404 78.8586 30.5894 78.0436 29.9847 78.0436C29.38 78.0436 29.0289 78.8586 29.0289 80.8594C29.0289 82.8603 29.3886 83.6852 29.9847 83.6852C30.5808 83.6852 30.9404 82.8682 30.9404 80.8594ZM29.9832 80.213C30.0768 80.2122 30.1684 80.25 30.2464 80.3214C30.3244 80.3929 30.3852 80.4949 30.4212 80.6144C30.4572 80.7338 30.4667 80.8655 30.4485 80.9924C30.4303 81.1194 30.3852 81.236 30.3189 81.3274C30.2527 81.4188 30.1683 81.4809 30.0765 81.5057C29.9847 81.5305 29.8896 81.517 29.8034 81.4668C29.7171 81.4166 29.6436 81.3321 29.5922 81.2239C29.5408 81.1158 29.5138 80.9889 29.5147 80.8594C29.5143 80.7742 29.5262 80.6898 29.5496 80.611C29.573 80.5322 29.6075 80.4606 29.6512 80.4004C29.6948 80.3403 29.7466 80.2927 29.8036 80.2605C29.8606 80.2284 29.9217 80.2122 29.9832 80.213V80.213Z" fill="#426372"/>
<path d="M35.3008 82.6501V84.2921H34.6617V82.6501H32.6342V82.0037L34.0857 77.3159L34.6388 77.6351L33.3291 81.9243H34.6589L34.7248 80.1396H35.2979V81.9243H35.9227V82.6521L35.3008 82.6501Z" fill="#426372"/>
<path d="M44.1463 78.3607L44.463 79.0469L41.9468 81.1766L44.463 83.3143L44.1176 83.9826L41.3779 81.6149V80.7304L44.1463 78.3607Z" fill="#426372"/>
<path d="M45.9631 85.3272L45.4301 84.998L48.4993 76.2332L49.0252 76.5822L45.9631 85.3272Z" fill="#426372"/>
<path d="M52.4412 84.292V81.0795H50.6386V84.292H49.9565V77.4368H50.6386V80.3022H52.4412V77.4368H53.1233V84.292H52.4412Z" fill="#426372"/>
<path d="M55.181 78.2022V80.441H57.0065V81.1965H55.181V83.5543H57.4177V84.2999H54.4989V77.4368H57.3647L57.2859 78.1923L55.181 78.2022Z" fill="#426372"/>
<path d="M61.0945 82.5648H59.1887L58.8075 84.286H58.1255L59.7289 77.4308H60.5887L62.1921 84.286H61.4756L61.0945 82.5648ZM59.3549 81.7993H60.9311L60.1616 78.2874H60.1316L59.3549 81.7993Z" fill="#426372"/>
<path d="M64.0479 84.292H62.8901V77.4368H63.9691C65.1412 77.4368 66.3048 77.9841 66.3048 80.8297C66.3048 83.6753 65.0982 84.292 64.0479 84.292ZM64.1196 78.2022H63.5736V83.5563H64.1267C64.8317 83.5563 65.5783 83.0586 65.5783 80.8416C65.5783 78.5016 64.7945 78.2022 64.1196 78.2022Z" fill="#426372"/>
<path d="M68.1131 78.2022V80.441H69.9386V81.1965H68.1131V83.5543H70.3527V84.2999H67.431V77.4368H70.2968L70.2094 78.2022H68.1131Z" fill="#426372"/>
<path d="M73.6325 81.2659L75.0812 84.292H74.2687L72.9461 81.3869H72.3128V84.292H71.6307V77.4368H72.9318C74.1684 77.4368 74.8147 78.0912 74.8147 79.3761C74.819 80.4014 74.3017 81.028 73.6325 81.2659V81.2659ZM73.0006 78.1725H72.3185V80.6611H73.0092C73.6999 80.6611 74.0939 80.3042 74.0939 79.3781C74.0925 78.5215 73.74 78.1725 72.9992 78.1725H73.0006Z" fill="#426372"/>
<path d="M78.9501 80.7304V81.6149L76.2103 83.9826L75.865 83.3143L78.3769 81.1766L75.8607 79.0469L76.1774 78.3607L78.9501 80.7304Z" fill="#426372"/>
</svg>
