<svg width="70" height="100" viewBox="0 0 70 100" fill="none" xmlns="http://www.w3.org/2000/svg">
<g clip-path="url(#clip0_204_7910)">
<path d="M17.7473 100C27.3353 100 35.1167 92.5334 35.1167 83.3334V66.6667H17.7473C8.15942 66.6667 0.37793 74.1334 0.37793 83.3334C0.37793 92.5334 8.15942 100 17.7473 100Z" fill="#0ACF83"/>
<path d="M0.37793 49.9999C0.37793 40.7999 8.15942 33.3333 17.7473 33.3333H35.1167V66.6666H17.7473C8.15942 66.6666 0.37793 59.1999 0.37793 49.9999Z" fill="#A259FF"/>
<path d="M0.375977 16.6667C0.375977 7.46667 8.15747 0 17.7454 0H35.1148V33.3333H17.7454C8.15747 33.3333 0.375977 25.8667 0.375977 16.6667Z" fill="#F24E1E"/>
<path d="M35.1179 0H52.4873C62.0752 0 69.8567 7.46667 69.8567 16.6667C69.8567 25.8667 62.0752 33.3333 52.4873 33.3333H35.1179V0Z" fill="#FF7262"/>
<path d="M69.8567 49.9999C69.8567 59.1999 62.0752 66.6666 52.4873 66.6666C42.8994 66.6666 35.1179 59.1999 35.1179 49.9999C35.1179 40.7999 42.8994 33.3333 52.4873 33.3333C62.0752 33.3333 69.8567 40.7999 69.8567 49.9999Z" fill="#1ABCFE"/>
</g>
<defs>
<clipPath id="clip0_204_7910">
<rect width="69.4915" height="100" fill="white" transform="translate(0.37207)"/>
</clipPath>
</defs>
</svg>
