<svg width="107" height="100" viewBox="0 0 107 100" fill="none" xmlns="http://www.w3.org/2000/svg">
<path d="M0.595337 49.5504C0.595337 57.9044 8.39712 65.7033 20.6973 70.0992C18.241 83.0286 20.2571 93.4496 26.9908 97.5103C33.9124 101.684 44.2239 98.7949 54.0109 89.8497C63.5509 98.4337 73.1929 101.812 79.9204 97.7398C86.8352 93.5542 88.9385 82.4263 86.4144 69.0933C99.2256 64.6644 106.392 58.0144 106.392 49.5504C106.392 41.39 98.5756 34.3302 86.4414 29.9624C89.1587 16.0784 86.8562 5.91019 79.8438 1.68185C73.083 -2.39453 63.3291 1.15845 53.6488 9.96729C43.578 0.617401 33.9204 -2.23724 26.9147 2.00343C20.1605 6.09141 18.2331 16.7018 20.6973 29.8706C8.81245 34.2034 0.595337 41.4226 0.595337 49.5504Z" fill="white"/>
<path d="M83.8701 34.2996C82.8955 33.9488 81.8855 33.6169 80.8456 33.303C81.0165 32.5737 81.1734 31.8537 81.3128 31.146C83.6024 19.5254 82.1054 10.1638 76.9937 7.08156C72.0921 4.12609 64.0761 7.20764 55.9802 14.5745C55.2017 15.2829 54.421 16.0329 53.6407 16.819C53.1207 16.2989 52.6016 15.7963 52.0838 15.3156C43.5991 7.43846 35.0945 4.11892 29.9878 7.21009C25.091 10.1741 23.6408 18.9749 25.7017 29.9879C25.9008 31.0516 26.1334 32.1379 26.3965 33.2424C25.1928 33.5996 24.0308 33.9805 22.919 34.3857C12.9716 38.0119 6.61877 43.6952 6.61877 49.5902C6.61877 55.6786 13.4386 61.7854 23.7995 65.4883C24.6172 65.7805 25.4656 66.0568 26.3399 66.3191C26.0561 67.5136 25.8093 68.6842 25.6021 69.8259C23.637 80.6477 25.1716 89.2406 30.0554 92.1859C35.0999 95.2276 43.566 92.1011 51.8099 84.5663C52.4614 83.9707 53.1154 83.3391 53.7705 82.677C54.6195 83.532 55.4673 84.3411 56.3105 85.1C64.2956 92.2849 72.1823 95.1862 77.0616 92.2326C82.1011 89.1822 83.7389 79.9514 81.6125 68.7206C81.4501 67.8628 81.2612 66.9865 81.0489 66.0947C81.6435 65.9109 82.2272 65.7212 82.7963 65.5239C93.5675 61.7924 100.576 55.7599 100.576 49.5902C100.576 43.6738 94.0179 37.9523 83.8701 34.2996Z" fill="#53C1DE"/>
<path d="M81.534 61.5405C81.0202 61.7183 80.4931 61.8902 79.9559 62.0569C78.7668 58.1207 77.1619 53.9352 75.198 49.6109C77.0721 45.3895 78.6149 41.2575 79.7707 37.3469C80.7319 37.6378 81.6648 37.9445 82.5637 38.2682C91.2583 41.3978 96.5618 46.025 96.5618 49.5904C96.5618 53.3882 90.8341 58.3183 81.534 61.5405ZM77.675 69.5358C78.6153 74.502 78.7496 78.9919 78.1268 82.5019C77.5672 85.6558 76.4418 87.7586 75.0503 88.6008C72.0893 90.3929 65.7572 88.0634 58.9282 81.9189C58.1454 81.2145 57.3568 80.4624 56.5658 79.6664C59.2132 76.6389 61.8591 73.1193 64.4415 69.2104C68.9836 68.789 73.2749 68.1 77.1665 67.1594C77.3581 67.9678 77.5284 68.7606 77.675 69.5358ZM38.6508 88.2911C35.7579 89.3594 33.4538 89.39 32.061 88.5503C29.0973 86.7629 27.8652 79.8636 29.5458 70.6088C29.7383 69.549 29.9674 68.4602 30.2315 67.3474C34.0804 68.2373 38.3402 68.8776 42.8932 69.2636C45.493 73.0885 48.2154 76.6042 50.9588 79.6826C50.3594 80.2877 49.7624 80.8637 49.1687 81.4065C45.5233 84.7383 41.8702 87.1022 38.6508 88.2911ZM25.0977 61.5172C20.5163 59.8799 16.7328 57.7519 14.1393 55.4298C11.809 53.3431 10.6324 51.2714 10.6324 49.5904C10.6324 46.0131 15.7332 41.4503 24.2402 38.3489C25.2725 37.9726 26.353 37.618 27.4744 37.2849C28.6501 41.2838 30.1924 45.4647 32.0536 49.6925C30.1683 53.9831 28.6041 58.2307 27.4168 62.2765C26.6174 62.0362 25.8429 61.7834 25.0977 61.5172ZM29.6408 29.1821C27.8751 19.7465 29.0478 12.6286 31.9988 10.8425C35.1421 8.93977 42.0928 11.6527 49.4187 18.4542C49.887 18.889 50.3571 19.344 50.8285 19.8147C48.0986 22.8797 45.4012 26.369 42.8245 30.1714C38.4056 30.5996 34.1758 31.2875 30.2867 32.2088C30.0422 31.1804 29.8256 30.17 29.6408 29.1821ZM70.1696 39.6461C69.2399 37.967 68.2854 36.3276 67.3124 34.733C70.3102 35.1293 73.1824 35.6553 75.8797 36.299C75.0699 39.0126 74.0606 41.8498 72.8725 44.7584C72.0203 43.0666 71.1188 41.3607 70.1696 39.6461ZM53.642 22.8141C55.4934 24.9113 57.3475 27.2528 59.1711 29.7933C57.3334 29.7025 55.473 29.6553 53.5972 29.6553C51.7392 29.6553 49.8925 29.7015 48.0662 29.7907C49.8916 27.2738 51.7617 24.9354 53.642 22.8141ZM37.0087 39.6752C36.08 41.359 35.1953 43.0556 34.3564 44.7553C33.1875 41.8568 32.1876 39.0066 31.3708 36.2545C34.0515 35.6273 36.9102 35.1144 39.8889 34.7257C38.9022 36.335 37.9399 37.9864 37.0087 39.6748V39.6752ZM39.9747 64.7546C36.8971 64.3956 33.9955 63.9091 31.3154 63.2991C32.1453 60.4979 33.1673 57.5868 34.3609 54.626C35.2019 56.3245 36.0902 58.0217 37.0246 59.7092H37.0247C37.9765 61.4284 38.9626 63.1124 39.9747 64.7546ZM53.7531 76.6626C51.8507 74.5165 49.9532 72.1425 48.1 69.5888C49.899 69.6626 51.7331 69.7004 53.5972 69.7004C55.5123 69.7004 57.4055 69.6553 59.2689 69.5685C57.4393 72.1682 55.5919 74.5459 53.7531 76.6626ZM72.9108 54.4751C74.1666 57.4679 75.2253 60.3638 76.0658 63.1173C73.3416 63.7671 70.4003 64.2905 67.3014 64.6794C68.2767 63.0632 69.2395 61.3957 70.1856 59.6804C71.1427 57.945 72.0515 56.207 72.9108 54.4751ZM66.7088 57.5837C65.2401 60.2464 63.7322 62.7883 62.2015 65.1877C59.4134 65.3962 56.533 65.5035 53.5972 65.5035C50.6733 65.5035 47.8292 65.4086 45.0905 65.2227C43.498 62.7918 41.9574 60.2424 40.498 57.6066H40.4983C39.0428 54.978 37.7032 52.3271 36.4894 49.6911C37.7029 47.049 39.039 44.3952 40.4861 41.7713L40.4858 41.7718C41.9368 39.1409 43.4639 36.6039 45.0416 34.1883C47.8359 33.9674 50.7013 33.8522 53.5971 33.8522H53.5972C56.5061 33.8522 59.3751 33.9683 62.1685 34.1911C63.7222 36.5891 65.2389 39.1179 66.6956 41.7491C68.1688 44.4099 69.5222 47.0461 70.746 49.6315C69.5258 52.2614 68.1755 54.9241 66.7088 57.5837ZM74.9888 10.7177C78.1351 12.6148 79.3587 20.2661 77.3819 30.2992C77.2558 30.9394 77.1138 31.5915 76.9596 32.2523C73.0615 31.3119 68.8286 30.612 64.3969 30.1773C61.8152 26.3331 59.1398 22.8384 56.4544 19.8128C57.1764 19.0866 57.8973 18.3941 58.6153 17.7406C65.5518 11.4287 72.035 8.93662 74.9888 10.7177Z" fill="white"/>
<path d="M53.5986 40.8179C58.2322 40.8179 61.9887 44.7454 61.9887 49.5905C61.9887 54.4355 58.2322 58.3632 53.5986 58.3632C48.965 58.3632 45.2086 54.4355 45.2086 49.5905C45.2086 44.7454 48.965 40.8179 53.5986 40.8179Z" fill="#53C1DE"/>
</svg>
