<svg width="97" height="100" viewBox="0 0 97 100" fill="none" xmlns="http://www.w3.org/2000/svg">
<path d="M0.353394 0H96.5954V100H0.353394V0Z" fill="#F7DF1E"/>
<path d="M25.6591 83.567L33.0242 78.9358C34.4451 81.5534 35.7376 83.7682 38.838 83.7682C41.8099 83.7682 43.6835 82.5602 43.6835 77.8618V45.9094H52.7278V77.9947C52.7278 87.728 47.2368 92.1583 39.2257 92.1583C31.9906 92.1583 27.7908 88.2648 25.6589 83.5662" fill="black"/>
<path d="M57.6401 82.5604L65.0043 78.13C66.9429 81.4196 69.4625 83.8359 73.9199 83.8359C77.6673 83.8359 80.057 81.8891 80.057 79.204C80.057 75.9819 77.6023 74.8407 73.4675 72.9618L71.2071 71.9542C64.6817 69.0683 60.3531 65.4435 60.3531 57.791C60.3531 50.7428 65.5213 45.3724 73.5971 45.3724C79.3468 45.3724 83.4814 47.4535 86.4529 52.8908L79.411 57.5894C77.8604 54.7032 76.1812 53.5623 73.5972 53.5623C70.9484 53.5623 69.2686 55.3075 69.2686 57.5894C69.2686 60.4088 70.9484 61.5502 74.8242 63.2956L77.0851 64.3024C84.7731 67.7261 89.1017 71.2162 89.1017 79.0697C89.1017 87.5281 82.706 92.1594 74.1139 92.1594C65.7155 92.1594 60.2886 87.9978 57.6403 82.5604" fill="black"/>
</svg>
