<svg width="24" height="24" viewBox="0 0 24 24" fill="none" xmlns="http://www.w3.org/2000/svg">
<path d="M17.9999 4.48006C16.4086 2.88876 14.2504 1.99478 11.9999 1.99478C9.74949 1.99478 7.59123 2.88876 5.99993 4.48006C4.40863 6.07136 3.51465 8.22963 3.51465 10.4801C3.51465 12.7305 4.40863 14.8888 5.99993 16.4801L11.2699 21.7601C11.3629 21.8538 11.4735 21.9282 11.5954 21.979C11.7172 22.0297 11.8479 22.0559 11.9799 22.0559C12.1119 22.0559 12.2426 22.0297 12.3645 21.979C12.4864 21.9282 12.597 21.8538 12.6899 21.7601L17.9999 16.4301C19.5846 14.8454 20.4748 12.6961 20.4748 10.4551C20.4748 8.21401 19.5846 6.06474 17.9999 4.48006V4.48006ZM16.5699 15.0001L11.9999 19.5901L7.42993 15.0001C6.52707 14.0964 5.91241 12.9453 5.66362 11.6924C5.41484 10.4394 5.54312 9.14081 6.03223 7.96074C6.52135 6.78068 7.34935 5.77211 8.41156 5.06254C9.47377 4.35297 10.7225 3.97424 11.9999 3.97424C13.2773 3.97424 14.5261 4.35297 15.5883 5.06254C16.6505 5.77211 17.4785 6.78068 17.9676 7.96074C18.4567 9.14081 18.585 10.4394 18.3362 11.6924C18.0875 12.9453 17.4728 14.0964 16.5699 15.0001V15.0001ZM8.99993 7.41006C8.19264 8.21983 7.73932 9.31663 7.73932 10.4601C7.73932 11.6035 8.19264 12.7003 8.99993 13.5101C9.59969 14.1109 10.3635 14.5211 11.1956 14.6895C12.0276 14.8578 12.8909 14.7766 13.677 14.4562C14.4631 14.1358 15.1371 13.5903 15.6144 12.8883C16.0917 12.1863 16.3511 11.3589 16.3599 10.5101C16.3644 9.94327 16.2553 9.38132 16.0388 8.85745C15.8224 8.33358 15.5032 7.85842 15.0999 7.46006C14.7036 7.05464 14.231 6.7316 13.7094 6.50953C13.1877 6.28746 12.6273 6.17074 12.0603 6.16609C11.4934 6.16144 10.9311 6.26896 10.4059 6.48245C9.88067 6.69594 9.40285 7.01119 8.99993 7.41006V7.41006ZM13.6899 12.0901C13.311 12.4748 12.8101 12.716 12.2731 12.7723C11.736 12.8287 11.196 12.6967 10.7454 12.399C10.2949 12.1013 9.96173 11.6563 9.80294 11.1401C9.64415 10.624 9.66958 10.0687 9.87489 9.56922C10.0802 9.06974 10.4526 8.65708 10.9285 8.4018C11.4044 8.14652 11.9542 8.06447 12.4839 8.16968C13.0135 8.27489 13.4902 8.56082 13.8324 8.97859C14.1746 9.39637 14.3611 9.92003 14.3599 10.4601C14.3454 11.0773 14.0864 11.6636 13.6399 12.0901H13.6899Z" fill="#4361EE"/>
</svg>
