<svg width="18" height="18" viewBox="0 0 18 18" fill="none" xmlns="http://www.w3.org/2000/svg">
<g clip-path="url(#clip0_204_7865)">
<path d="M6.00049 9.00006C6.00049 7.34328 7.34322 5.99982 9 5.99982C10.6568 5.99982 12.0002 7.34328 12.0002 9.00006C12.0002 10.6568 10.6568 12.0003 9 12.0003C7.34322 12.0003 6.00049 10.6568 6.00049 9.00006ZM4.37859 9.00006C4.37859 11.5525 6.44758 13.6215 9 13.6215C11.5524 13.6215 13.6214 11.5525 13.6214 9.00006C13.6214 6.44764 11.5524 4.37866 9 4.37866C6.44758 4.37866 4.37859 6.44764 4.37859 9.00006ZM12.7243 4.19546C12.7243 4.79158 13.2078 5.27575 13.8046 5.27575C14.4007 5.27575 14.8849 4.79158 14.8849 4.19546C14.8849 3.59933 14.4015 3.11589 13.8046 3.11589C13.2078 3.11589 12.7243 3.59933 12.7243 4.19546ZM5.36365 16.3258C4.48619 16.2858 4.00929 16.1397 3.69233 16.0161C3.27213 15.8526 2.97262 15.6577 2.65711 15.343C2.34233 15.0282 2.14677 14.7287 1.98393 14.3085C1.86034 13.9915 1.71422 13.5146 1.67423 12.6371C1.63061 11.6884 1.62189 11.4035 1.62189 9.00006C1.62189 6.59667 1.63134 6.31242 1.67423 5.36299C1.71422 4.48552 1.86107 4.00935 1.98393 3.69166C2.1475 3.27147 2.34233 2.97195 2.65711 2.65644C2.97189 2.34166 3.27141 2.1461 3.69233 1.98326C4.00929 1.85967 4.48619 1.71355 5.36365 1.67357C6.31236 1.62995 6.59733 1.62122 9 1.62122C11.4034 1.62122 11.6876 1.63067 12.6371 1.67357C13.5145 1.71355 13.9907 1.8604 14.3084 1.98326C14.7286 2.1461 15.0281 2.34166 15.3436 2.65644C15.6584 2.97122 15.8532 3.27147 16.0168 3.69166C16.1404 4.00862 16.2865 4.48552 16.3265 5.36299C16.3701 6.31242 16.3788 6.59667 16.3788 9.00006C16.3788 11.4027 16.3701 11.6877 16.3265 12.6371C16.2865 13.5146 16.1397 13.9915 16.0168 14.3085C15.8532 14.7287 15.6584 15.0282 15.3436 15.343C15.0288 15.6577 14.7286 15.8526 14.3084 16.0161C13.9914 16.1397 13.5145 16.2858 12.6371 16.3258C11.6884 16.3694 11.4034 16.3782 9 16.3782C6.59733 16.3782 6.31236 16.3694 5.36365 16.3258V16.3258ZM5.2895 0.0545845C4.33134 0.0982032 3.67706 0.250142 3.10493 0.472597C2.51317 0.702323 2.01155 1.01056 1.51066 1.51072C1.0105 2.01088 0.702262 2.5125 0.472536 3.10499C0.250081 3.67712 0.0981422 4.3314 0.0545234 5.28956C0.0101777 6.24917 0 6.55596 0 9.00006C0 11.4442 0.0101777 11.7509 0.0545234 12.7106C0.0981422 13.6687 0.250081 14.323 0.472536 14.8951C0.702262 15.4869 1.00977 15.9892 1.51066 16.4894C2.01082 16.9896 2.51244 17.2971 3.10493 17.5275C3.67779 17.75 4.33134 17.9019 5.2895 17.9455C6.24984 17.9892 6.5559 18.0001 9 18.0001C11.4448 18.0001 11.7509 17.9899 12.7105 17.9455C13.6687 17.9019 14.3229 17.75 14.8951 17.5275C15.4868 17.2971 15.9884 16.9896 16.4893 16.4894C16.9895 15.9892 17.297 15.4869 17.5275 14.8951C17.7499 14.323 17.9026 13.6687 17.9455 12.7106C17.9891 11.7502 17.9993 11.4442 17.9993 9.00006C17.9993 6.55596 17.9891 6.24917 17.9455 5.28956C17.9019 4.3314 17.7499 3.67712 17.5275 3.10499C17.297 2.51323 16.9895 2.01161 16.4893 1.51072C15.9892 1.01056 15.4868 0.702323 14.8958 0.472597C14.3229 0.250142 13.6687 0.0974762 12.7112 0.0545845C11.7516 0.0109657 11.4448 6.10352e-05 9.00073 6.10352e-05C6.5559 6.10352e-05 6.24984 0.0102387 5.2895 0.0545845" fill="#A53DFF"/>
</g>
<defs>
<clipPath id="clip0_204_7865">
<rect width="18" height="18" fill="white"/>
</clipPath>
</defs>
</svg>
