<svg width="25" height="24" viewBox="0 0 25 24" fill="none" xmlns="http://www.w3.org/2000/svg">
<path d="M20.84 9.32001L6.84 2.32001C6.28749 2.04502 5.66362 1.94712 5.05344 2.03966C4.44326 2.1322 3.87646 2.41068 3.43033 2.83712C2.98421 3.26357 2.68046 3.81723 2.5605 4.42262C2.44054 5.02801 2.5102 5.65566 2.76 6.22001L5.16 11.59C5.21446 11.7198 5.24251 11.8592 5.24251 12C5.24251 12.1408 5.21446 12.2802 5.16 12.41L2.76 17.78C2.5567 18.2367 2.47076 18.737 2.50998 19.2354C2.5492 19.7337 2.71235 20.2144 2.98459 20.6337C3.25682 21.053 3.62953 21.3976 4.06883 21.6362C4.50812 21.8748 5.00009 21.9999 5.5 22C5.96823 21.9953 6.42949 21.886 6.85 21.68L20.85 14.68C21.3466 14.4302 21.764 14.0473 22.0557 13.5741C22.3474 13.1009 22.5018 12.5559 22.5018 12C22.5018 11.4441 22.3474 10.8992 22.0557 10.4259C21.764 9.9527 21.3466 9.56982 20.85 9.32001H20.84ZM19.95 12.89L5.95 19.89C5.76617 19.9783 5.55973 20.0082 5.35839 19.9759C5.15705 19.9435 4.97041 19.8503 4.82352 19.7089C4.67662 19.5674 4.57648 19.3844 4.53653 19.1844C4.49658 18.9845 4.51873 18.777 4.6 18.59L6.99 13.22C7.02094 13.1483 7.04766 13.0748 7.07 13H13.96C14.2252 13 14.4796 12.8946 14.6671 12.7071C14.8546 12.5196 14.96 12.2652 14.96 12C14.96 11.7348 14.8546 11.4804 14.6671 11.2929C14.4796 11.1054 14.2252 11 13.96 11H7.07C7.04766 10.9252 7.02094 10.8517 6.99 10.78L4.6 5.41001C4.51873 5.22297 4.49658 5.01556 4.53653 4.81558C4.57648 4.61559 4.67662 4.43261 4.82352 4.29115C4.97041 4.1497 5.15705 4.05654 5.35839 4.02416C5.55973 3.99178 5.76617 4.02174 5.95 4.11001L19.95 11.11C20.1138 11.1939 20.2513 11.3214 20.3473 11.4785C20.4433 11.6355 20.494 11.816 20.494 12C20.494 12.1841 20.4433 12.3645 20.3473 12.5216C20.2513 12.6786 20.1138 12.8061 19.95 12.89V12.89Z" fill="white"/>
</svg>
