<svg width="104" height="100" viewBox="0 0 104 100" fill="none" xmlns="http://www.w3.org/2000/svg">
<path d="M95.2475 77.343C89.6443 77.2048 85.3018 77.7594 81.6596 79.2833C80.609 79.6989 78.9278 79.6993 78.7877 81.0155C79.3484 81.5701 79.4182 82.4708 79.9086 83.2327C80.7496 84.618 82.2198 86.4892 83.5508 87.4594C85.0214 88.5678 86.4925 89.6762 88.033 90.6464C90.7648 92.3094 93.8467 93.2792 96.5081 94.9422C98.0495 95.9115 99.5896 97.1594 101.131 98.1987C101.901 98.7525 102.391 99.6536 103.372 100V99.7922C102.882 99.1685 102.741 98.2679 102.251 97.575C101.551 96.8821 100.851 96.2584 100.15 95.5655C98.1189 92.8636 95.5976 90.5077 92.866 88.5678C90.625 87.0434 85.7218 84.9649 84.8114 82.4012C84.8114 82.4012 84.7411 82.3321 84.6712 82.263C86.2122 82.1243 88.033 81.5701 89.5041 81.1541C91.8857 80.5304 94.0567 80.669 96.5081 80.0457C97.6285 79.7684 98.7495 79.422 99.8699 79.0756V78.4522C98.6097 77.2047 97.6989 75.5421 96.3679 74.3642C92.7961 71.315 88.8736 68.3362 84.8114 65.8421C82.6399 64.4564 79.8383 63.5553 77.5271 62.3778C76.687 61.9614 75.2857 61.754 74.7958 61.0612C73.5347 59.5368 72.8343 57.5278 71.9239 55.726C69.8935 51.9149 67.9316 47.689 66.1806 43.6705C64.9204 40.9682 64.1497 38.2659 62.6087 35.7718C55.3948 23.9932 47.5502 16.8568 35.5033 9.85863C32.9118 8.4038 29.8303 7.78005 26.5383 7.01808C24.7878 6.94853 23.0364 6.81031 21.2854 6.74076C20.1649 6.25567 19.044 4.9395 18.0633 4.31575C14.0718 1.82119 3.77544 -3.5826 0.8337 3.55378C-1.05746 8.05738 3.63529 12.4914 5.24609 14.7782C6.4373 16.3717 7.97782 18.1729 8.81838 19.9747C9.30875 21.1517 9.44847 22.3997 9.93884 23.6467C11.0597 26.6946 12.1099 30.0902 13.581 32.9312C14.3517 34.3861 15.1918 35.9105 16.1725 37.2266C16.7328 37.9886 17.7131 38.3354 17.9235 39.5825C16.9432 40.9682 16.8729 43.0468 16.3123 44.779C13.791 52.6082 14.7717 62.3083 18.3436 68.0589C19.464 69.7906 22.1259 73.6022 25.6978 72.1469C28.8496 70.8999 28.1492 66.9505 29.0596 63.4862C29.2701 62.6542 29.1299 62.1005 29.5499 61.5463C29.5503 61.6154 29.5499 61.6849 29.5499 61.6849C30.5307 63.6248 31.511 65.4957 32.4214 67.4355C34.5929 70.8303 38.3748 74.3641 41.5265 76.7201C43.2081 77.9667 44.5386 80.1148 46.6398 80.8772V80.669H46.4996C46.0791 80.0453 45.449 79.7684 44.8888 79.2833C43.6282 78.0362 42.2269 76.5118 41.2466 75.1261C38.3053 71.2458 35.7133 66.9505 33.4021 62.516C32.2817 60.3683 31.3009 58.0124 30.3905 55.8647C29.97 55.0328 29.97 53.7861 29.2696 53.3706C28.219 54.8945 26.6785 56.2112 25.9078 58.082C24.5778 61.0612 24.4371 64.7333 23.9468 68.544C23.6669 68.6135 23.8066 68.544 23.6664 68.6826C21.4255 68.128 20.6548 65.8421 19.8142 63.9017C17.713 58.9826 17.3629 51.0838 19.1841 45.4027C19.6745 43.9474 21.7757 39.3747 20.9351 37.989C20.5151 36.6724 19.1138 35.9104 18.3436 34.8711C17.4332 33.5545 16.4524 31.8919 15.8223 30.4367C14.1412 26.5568 13.3006 22.261 11.4798 18.3807C10.6392 16.579 9.16858 14.7087 7.97782 13.046C6.64733 11.1752 5.17623 9.85863 4.12562 7.64138C3.77587 6.87941 3.28506 5.63235 3.84529 4.80083C3.98545 4.24663 4.26534 4.03886 4.82602 3.9002C5.73644 3.13779 8.328 4.10797 9.23841 4.52351C11.83 5.56236 14.001 6.53298 16.1725 7.98781C17.1528 8.68067 18.2034 9.99728 19.464 10.3437H20.9351C23.1765 10.8284 25.6977 10.4824 27.7989 11.1057C31.5114 12.2832 34.8727 14.0158 37.8848 15.8866C47.0603 21.6372 54.624 29.8133 59.7373 39.5825C60.5778 41.1756 60.9276 42.6313 61.6983 44.2939C63.1694 47.6891 64.9902 51.1534 66.4609 54.479C67.9316 57.7351 69.3324 61.0612 71.4335 63.7635C72.4846 65.2179 76.6865 65.9803 78.5777 66.7427C79.9784 67.366 82.15 67.9207 83.4106 68.6827C85.7917 70.137 88.1732 71.8005 90.4145 73.394C91.5354 74.2251 95.037 75.9577 95.2475 77.343Z" fill="#00546B"/>
</svg>
